<svg viewBox="170.27142857142826 397.3529411764707 7605.457142857142 3122.0588235294113" xmlns="http://www.w3.org/2000/svg" xmlns:xlink="http://www.w3.org/1999/xlink" xmlns:blush="http://design.blush" overflow="visible" width="500px" height="205.25122717058318px"><defs><polygon id="masterscenealone-time-1-path-1" points="0 0.1068 43.9995 0.1068 43.9995 44.1068 0 44.1068"/><polygon id="masterscenealone-time-1-path-3" points="-0.0005 0.107 43.9995 0.107 43.9995 44.1068 -0.0005 44.1068"/><polygon id="masterscenealone-time-1-path-5" points="0.2961 0.0297382716 168.575 0.0297382716 168.575 293.567627 0.2961 293.567627"/><polygon id="masterscenealone-time-1-path-7" points="0 0.946525702 1640.2957 0.946525702 1640.2957 419.0652 0 419.0652"/><polygon id="masterscenealone-time-1-path-9" points="0.9712 0.506 494.2962 0.506 494.2962 579.0644 0.9712 579.0644"/><polygon id="masterscenealone-time-1-path-11" points="0 0.974 166.34437 0.974 166.34437 155.077511 0 155.077511"/><polygon id="masterscenealone-time-1-path-13" points="0.58787431 0.1508 87.7709 0.1508 87.7709 284 0.58787431 284"/><polygon id="masterscenealone-time-1-path-15" points="0.721 0.6074 75.113 0.6074 75.113 75 0.721 75"/><polygon id="masterscenealone-time-1-path-17" points="0.0001 -0.00397710468 808.19 -0.00397710468 808.19 2431.88 0.0001 2431.88"/></defs><g id="Master/Scene/Alone Time 1" stroke="none" stroke-width="1" fill="none" fill-rule="evenodd"><g id="Background" transform="translate(185.000000, 431.000000)"><path d="M47.803,3044.92 L7529.803,3044.92 C7555.76038,3044.92 7576.803,3023.87738 7576.803,2997.92 L7576.803,2997.92 L7576.803,2997.92 L0.803,2997.92 C0.803,3023.87738 21.8456168,3044.92 47.803,3044.92 Z" id="Floor" fill="#EECCDC"/><g id="Painting" transform="translate(3748.310000, 1.920000)"><g><polygon id="Fill-2" fill="#E93737" points="0 1209 1025 1209 1025 0 0 0"/><polygon id="Fill-3" fill="#EECCDC" points="28 1180 1000 1180 1000 28 28 28"/><polygon id="Fill-4" fill="#EC7070" points="617 776 1000 776 1000 322 617 322"/><polygon id="Fill-5" fill="#E93737" points="695.072 737 747 737 747 374 695.072 374"/><polygon id="Fill-7" fill="#E93737" points="616.9996 322 531.9996 479 533.4526 774.484 616.9996 776"/><polygon id="Fill-8" fill="#EC7070" points="27 1180 364 1180 364 730 27 730"/><polygon id="Fill-9" fill="#E93737" points="124 933 364 933 364 821 124 821"/><polygon id="Fill-10" fill="#E93737" points="124 1104 364 1104 364 985 124 985"/><polygon id="Fill-11" fill="#EC7070" points="534 1180 1000 1180 1000 726 534 726"/><polygon id="Fill-12" fill="#E93737" points="622.072 935 1000.232 935 1000.232 821 622.072 821"/><polygon id="Fill-13" fill="#E93737" points="623.072 1107 1001.232 1107 1001.232 993 623.072 993"/><polygon id="Fill-14" fill="#E93737" points="533.9996 726 448.9996 883 450.4526 1178.484 533.9996 1180"/><path d="M352.9996,270 C352.9996,329.647 304.6456,378 244.9996,378 C185.3526,378 136.9996,329.647 136.9996,270 C136.9996,210.353 185.3526,162 244.9996,162 C304.6456,162 352.9996,210.353 352.9996,270" id="Fill-16" fill="#FC7750"/><polygon id="Fill-6" fill="#E93737" points="820.072 737 872 737 872 374 820.072 374"/><polygon id="Fill-15" fill="#E93737" points="948.072 739 1000 739 1000 374 948.072 374"/></g></g><g id="Painting/Horizontal" transform="translate(2889.000000, 0.000000) scale(1 1)" blush:width="767" blush:height="507" blush:component="Painting/Horizontal"><g id="Painting/Horizontal/Painting 2" stroke="none" stroke-width="1" fill="none" fill-rule="evenodd"><g id="Group-26"><polygon id="Fill-1" fill="#E93737" points="0 507 768 507 768 0 0 0"/><polygon id="Fill-2" fill="#EECCDC" points="23.98 482 741 482 741 28.742 23.98 28.742"/><g id="Group-25" transform="translate(102.000000, 95.000000)" fill="#FFF"><path d="M23.9243,53.9051 C19.9233,82.1571 16.7483,110.5231 14.4723,138.9661 C12.2233,167.0891 10.8323,195.2811 10.3053,223.4881 C10.0093,239.3611 9.9883,255.2371 10.2363,271.1101 C10.2733,273.4631 12.2793,275.7201 14.7363,275.6101 C17.1433,275.5031 19.2763,273.6321 19.2363,271.1101 C18.7973,242.9831 19.2083,214.8431 20.4813,186.7411 C21.7533,158.6401 23.8823,130.5771 26.8643,102.6051 C27.7013,94.7531 28.6073,86.9091 29.5773,79.0731 C30.0643,75.1541 30.5673,71.2381 31.0853,67.3251 C31.1293,66.9981 31.1723,66.6721 31.2163,66.3461 C31.2593,66.0201 31.3033,65.6941 31.3473,65.3681 C31.3073,65.6671 31.3083,65.6591 31.3513,65.3411 C31.4833,64.3631 31.6153,63.3851 31.7503,62.4071 C32.0293,60.3701 32.3143,58.3341 32.6033,56.2981 C32.9313,53.9781 32.0363,51.3491 29.4593,50.7621 C27.3353,50.2781 24.2773,51.4121 23.9243,53.9051" id="Fill-3"/><path d="M89.811,55.2827 C88.415,82.1477 88.151,109.0687 89.036,135.9557 C89.918,162.7597 91.934,189.5267 95.08,216.1597 C96.881,231.4187 99.039,246.6367 101.557,261.7937 C103.003,259.8947 104.451,257.9957 105.897,256.0967 C106.545,256.2017 106.623,256.1927 106.128,256.0707 C106.695,256.3317 106.757,256.3457 106.318,256.1117 C105.91,255.8377 105.953,255.8717 106.449,256.2157 C106.115,255.8537 106.134,255.9077 106.507,256.3767 C106.381,256.1967 106.268,256.0077 106.166,255.8127 C106.387,256.3897 106.419,256.4427 106.262,255.9707 C106.154,255.4707 106.158,255.5477 106.275,256.2017 C106.291,255.6927 106.268,255.7657 106.204,256.4197 C106.616,254.1107 105.58,251.4577 103.061,250.8847 C100.865,250.3837 97.967,251.5497 97.525,254.0277 C97.072,256.5667 97.398,259.0547 98.935,261.1837 C100.664,263.5777 102.981,264.7857 105.897,265.0967 C107.266,265.2437 108.64,264.3467 109.43,263.3237 C110.365,262.1147 110.481,260.8727 110.236,259.4007 C109.137,252.7867 108.105,246.1617 107.145,239.5267 C106.911,237.9077 106.681,236.2887 106.455,234.6687 C106.342,233.8597 106.23,233.0497 106.12,232.2397 C106.076,231.9157 106.031,231.5907 105.987,231.2667 C105.943,230.9427 105.899,230.6187 105.856,230.2947 C105.897,230.5997 105.896,230.5937 105.854,230.2757 C105.411,226.9527 104.985,223.6277 104.578,220.2997 C102.947,206.9907 101.597,193.6457 100.532,180.2787 C98.413,153.7087 97.411,127.0487 97.532,100.3937 C97.6,85.3497 98.03,70.3077 98.811,55.2827 C98.933,52.9277 96.654,50.6777 94.311,50.7827 C91.768,50.8967 89.942,52.7607 89.811,55.2827" id="Fill-5"/><path d="M5.9155,151.7516 C23.6125,148.5726 41.3545,145.6366 59.1345,142.9526 C67.9425,141.6226 76.7605,140.3536 85.5865,139.1466 C88.0945,138.8036 89.4565,138.6196 91.7465,138.3156 C93.9545,138.0226 96.1625,137.7326 98.3705,137.4476 C102.7885,136.8756 107.2075,136.3196 111.6285,135.7796 C121.6985,134.5486 131.7785,133.3976 141.8675,132.3246 C144.2005,132.0766 146.4845,130.4336 146.3675,127.8246 C146.2685,125.6006 144.3745,123.0586 141.8675,123.3246 C123.6685,125.2606 105.4995,127.4616 87.3615,129.9026 C69.4595,132.3126 51.5915,134.9726 33.7645,137.8846 C23.6705,139.5336 13.5895,141.2646 3.5225,143.0736 C1.2005,143.4906 -0.3215,146.4426 0.3795,148.6086 C1.1865,151.1016 3.4275,152.1986 5.9155,151.7516" id="Fill-7"/><path d="M146.3296,59.2492 C148.4146,86.1782 150.4986,113.1072 152.5836,140.0352 C153.6226,153.4582 154.6616,166.8822 155.7006,180.3052 C156.7386,193.7182 157.8406,207.1332 158.4586,220.5742 C159.1456,235.5372 159.2026,250.5462 157.8576,265.4752 C157.5816,268.5472 160.9426,270.3932 163.5546,269.8142 C173.4066,267.6302 183.3146,265.7072 193.2706,264.0592 C203.4846,262.3682 212.3676,261.1542 222.5456,260.0402 C224.8786,259.7852 227.1626,258.1532 227.0456,255.5402 C226.9466,253.3222 225.0526,250.7662 222.5456,251.0402 C201.9196,253.2982 181.4206,256.6452 161.1616,261.1362 C163.0606,262.5822 164.9596,264.0292 166.8576,265.4752 C169.2646,238.7572 167.1496,211.9412 165.0856,185.2762 C163.0006,158.3472 160.9166,131.4182 158.8316,104.4892 C157.6646,89.4092 156.4966,74.3292 155.3296,59.2492 C155.1476,56.9082 153.3906,54.6342 150.8296,54.7492 C148.5476,54.8512 146.1356,56.7362 146.3296,59.2492" id="Fill-9"/><path d="M146.9233,65.1209 L200.3933,63.8259 C202.7433,63.7699 205.0033,61.7969 204.8933,59.3259 C204.7853,56.9369 202.9133,54.7649 200.3933,54.8259 L146.9233,56.1209 C144.5713,56.1779 142.3123,58.1499 142.4233,60.6209 C142.5293,63.0099 144.4023,65.1819 146.9233,65.1209" id="Fill-11"/><path d="M161.9341,165.9413 C177.0571,167.9773 192.2881,168.5053 207.5041,167.2593 C209.8451,167.0683 212.1201,165.3273 212.0041,162.7593 C211.9031,160.4863 210.0171,158.0543 207.5041,158.2593 C200.1971,158.8583 192.8611,159.0773 185.5301,158.8963 C181.9471,158.8073 178.3671,158.6233 174.7921,158.3463 C173.0061,158.2073 171.2211,158.0453 169.4391,157.8593 C168.4661,157.7573 167.4951,157.6493 166.5241,157.5343 C166.0381,157.4763 165.5541,157.4173 165.0691,157.3563 C164.9381,157.3393 163.6231,157.1683 164.3271,157.2623 C162.0041,156.9503 159.3801,157.8173 158.7911,160.4053 C158.3101,162.5163 159.4391,165.6053 161.9341,165.9413" id="Fill-13"/><path d="M231.5493,58.6889 C237.4423,85.9559 242.3963,113.4249 246.3863,141.0349 C246.8763,144.4259 247.3523,147.8189 247.8133,151.2139 C248.1663,153.8149 248.6423,157.4419 249.0543,160.6929 C249.9363,167.6519 250.7573,174.6189 251.5183,181.5919 C253.0223,195.3769 254.2883,209.1879 255.3163,223.0159 C256.4763,238.6349 257.3283,254.2749 257.8813,269.9269 C257.9643,272.2729 259.8773,274.5409 262.3813,274.4269 C279.0383,273.6649 295.6953,272.9039 312.3513,272.1429 C317.0743,271.9269 321.7973,271.7109 326.5213,271.4949 C328.8693,271.3879 331.1333,269.5019 331.0213,266.9949 C330.9163,264.6489 329.0393,262.3799 326.5213,262.4949 C309.8643,263.2569 293.2083,264.0179 276.5523,264.7789 C271.8283,264.9949 267.1053,265.2109 262.3813,265.4269 L266.8813,269.9269 C265.8943,241.9649 263.9413,214.0399 261.0143,186.2149 C258.0623,158.1539 254.1463,130.1899 249.2623,102.3999 C246.5513,86.9749 243.5353,71.6039 240.2283,56.2959 C239.7303,53.9919 236.9153,52.4339 234.6933,53.1529 C232.2663,53.9389 231.0163,56.2199 231.5493,58.6889" id="Fill-15"/><path d="M327.144,53.9507 C329.353,72.0517 331.562,90.1537 333.771,108.2547 C335.97,126.2737 338.169,144.2917 340.369,162.3107 C342.578,180.4117 344.788,198.5127 346.997,216.6147 C348.096,225.6237 349.196,234.6327 350.295,243.6427 C350.85,248.1887 351.386,252.7367 351.959,257.2807 C352.259,259.6517 352.638,261.7787 354.139,263.7207 C355.867,265.9577 358.519,266.6507 361.227,266.7477 C370.302,267.0707 379.406,267.0317 388.486,267.1737 C397.521,267.3137 406.556,267.4547 415.591,267.5947 C417.83,267.6297 420.068,267.6647 422.306,267.700149 C424.661,267.7357 426.914,265.6037 426.806,263.1997 C426.695,260.7297 424.829,258.7387 422.306,258.6997 C404.567,258.4237 386.828,258.1477 369.089,257.8717 C366.851,257.8367 364.613,257.8017 362.374,257.7667 C361.924,257.7597 361.474,257.7587 361.024,257.7397 C360.823,257.7307 360.619,257.7257 360.417,257.7037 C360.836,257.7487 360.896,257.9497 360.435,257.6517 C360.837,257.9117 361.07,258.0237 361.348,258.4467 C361.293,258.3627 360.932,257.9157 361.245,258.3667 C361.529,258.7767 361.211,258.2527 361.159,258.0657 C361.04,257.6497 360.978,257.2297 360.896,256.8067 C361.081,257.7627 360.883,256.6557 360.838,256.2887 C360.698,255.1317 360.556,253.9737 360.415,252.8167 C360.143,250.5857 359.871,248.3537 359.598,246.1217 C358.519,237.2777 357.439,228.4337 356.36,219.5897 C354.201,201.9017 352.042,184.2137 349.883,166.5257 C347.724,148.8377 345.566,131.1497 343.407,113.4617 C341.258,95.8567 339.11,78.2507 336.96,60.6457 C336.688,58.4137 336.415,56.1827 336.144,53.9507 C335.86,51.6227 334.278,49.3327 331.644,49.4507 C329.45,49.5487 326.838,51.4477 327.144,53.9507" id="Fill-17"/><path d="M503.2876,63.0957 C492.3446,52.5617 476.3766,45.5137 460.9956,47.0957 C452.9326,47.9247 445.4716,50.9357 439.4126,56.3897 C433.1426,62.0347 429.1436,69.7777 426.4826,77.6757 C423.5496,86.3837 422.1266,95.6187 421.1336,104.7257 C420.0606,114.5507 419.8096,124.4517 420.0896,134.3277 C420.6536,154.3137 423.1096,174.3267 426.0536,194.0887 C427.4806,203.6797 429.3156,213.2477 432.3636,222.4697 C435.2356,231.1597 439.1116,239.7087 445.4046,246.4827 C451.3786,252.9117 459.4106,257.0327 467.7296,259.5407 C471.6706,260.7297 475.7146,261.5567 479.7836,262.1597 C484.1006,262.7987 488.4646,263.3187 492.8356,263.1027 C497.3646,262.8777 501.8266,261.9657 505.8746,259.8657 C509.7226,257.8677 512.8826,254.6517 515.0886,250.9437 C519.5566,243.4327 520.4426,234.3087 521.5756,225.8267 C524.0766,207.0987 524.9456,188.1587 524.1996,169.2797 C523.4446,150.1617 521.0576,131.0787 517.0936,112.3607 C515.1366,103.1197 512.7826,93.9617 510.0376,84.9237 C508.6766,80.4407 507.2186,75.9877 505.6636,71.5677 C504.2406,67.5197 502.8846,63.3027 500.6756,59.5997 C498.4386,55.8527 495.3316,52.9137 491.1646,51.4857 C488.9346,50.7217 486.1456,52.3597 485.6286,54.6287 C485.0586,57.1297 486.3856,59.3467 488.7716,60.1647 C488.9866,60.2377 489.5476,60.4907 488.6716,60.0837 C488.8266,60.1557 488.9806,60.2277 489.1346,60.3057 C489.4896,60.4867 489.8206,60.6977 490.1606,60.9047 C490.8356,61.3137 490.1946,60.9077 490.0686,60.8017 C490.1986,60.9107 490.3296,61.0187 490.4566,61.1307 C490.8426,61.4687 491.2056,61.8317 491.5486,62.2127 C491.6636,62.3407 491.7676,62.4817 491.8876,62.6047 C492.3296,63.0627 491.4666,61.9877 491.8296,62.5167 C492.0616,62.8567 492.3066,63.1877 492.5286,63.5357 C493.0136,64.2927 493.4496,65.0797 493.8506,65.8837 C494.0406,66.2627 494.2226,66.6457 494.3966,67.0307 C494.4976,67.2517 494.5916,67.4747 494.6906,67.6957 C494.6726,67.6527 494.4016,66.9767 494.5886,67.4557 C494.9526,68.3937 495.3186,69.3287 495.6636,70.2727 C496.4286,72.3657 497.1706,74.4657 497.8916,76.5727 C500.8246,85.1477 503.3976,93.8447 505.6086,102.6327 C507.8186,111.4217 509.6666,120.3017 511.1476,129.2427 C511.5126,131.4397 511.8536,133.6407 512.1736,135.8447 C512.2506,136.3767 512.3266,136.9097 512.4006,137.4417 C512.4436,137.7457 512.4856,138.0507 512.5276,138.3547 C512.5436,138.4657 512.6466,139.2367 512.5526,138.5287 C512.7046,139.6707 512.8506,140.8137 512.9906,141.9567 C513.5416,146.4547 514.0006,150.9637 514.3676,155.4807 C515.8346,173.5467 515.8266,191.7317 514.3156,209.7947 C513.9386,214.3097 513.4676,218.8177 512.9016,223.3137 C512.8346,223.8467 512.7656,224.3797 512.6966,224.9127 C512.6946,224.9247 512.5966,225.6747 512.6556,225.2287 C512.7226,224.7287 512.5956,225.6707 512.5816,225.7717 C512.4246,226.9137 512.2626,228.0537 512.0936,229.1937 C511.7976,231.1867 511.4916,233.1787 511.1056,235.1557 C510.7516,236.9797 510.3316,238.7927 509.7976,240.5727 C509.5426,241.4227 509.2616,242.2647 508.9466,243.0947 C508.8326,243.3957 508.3866,244.3737 508.7596,243.5877 C508.5456,244.0387 508.3466,244.4937 508.1206,244.9387 C507.7026,245.7647 507.2396,246.5677 506.7276,247.3397 C506.4906,247.6977 506.2426,248.0487 505.9836,248.3927 C506.5296,247.6647 505.7306,248.6577 505.5106,248.8997 C504.9206,249.5447 504.2796,250.1277 503.6176,250.6957 C504.2586,250.1467 503.3666,250.8707 503.1346,251.0267 C502.6586,251.3457 502.1696,251.6427 501.6676,251.9157 C501.3336,252.0977 500.9916,252.2617 500.6516,252.4307 C499.8926,252.8057 500.5216,252.4977 500.6836,252.4327 C500.4496,252.5267 500.2136,252.6177 499.9746,252.7047 C499.0786,253.0317 498.1596,253.2977 497.2296,253.5147 C496.7916,253.6167 496.3506,253.7077 495.9086,253.7877 C495.6546,253.8337 495.3996,253.8747 495.1436,253.9157 C495.0656,253.9287 494.4236,254.0007 494.9716,253.9417 C495.5656,253.8767 494.7386,253.9587 494.5996,253.9727 C494.4046,253.9917 494.2096,254.0097 494.0146,254.0257 C493.4906,254.0687 492.9656,254.0997 492.4406,254.1197 C490.4566,254.1977 488.4686,254.1297 486.4886,253.9697 C485.5696,253.8957 484.6526,253.8017 483.7366,253.6917 C483.4776,253.6607 483.2196,253.6267 482.9606,253.5957 C483.0246,253.6027 483.7086,253.7017 483.1726,253.6237 C482.6416,253.5467 482.1096,253.4717 481.5786,253.3907 C477.6446,252.7857 473.7376,251.9657 469.9296,250.8047 C469.0286,250.5297 468.1356,250.2367 467.2486,249.9227 C466.7436,249.7437 466.2406,249.5587 465.7406,249.3657 C465.5546,249.2937 465.3676,249.2197 465.1816,249.1457 C464.8546,249.0157 464.3646,248.8097 464.9606,249.0647 C463.1906,248.3067 461.4626,247.4497 459.7976,246.4837 C458.9386,245.9867 458.0976,245.4597 457.2766,244.9027 C456.9486,244.6797 456.6236,244.4517 456.3026,244.2197 C456.0876,244.0647 455.8746,243.9067 455.6636,243.7477 C456.1746,244.1317 455.7416,243.8057 455.4786,243.5917 C453.9476,242.3457 452.5196,240.9767 451.2086,239.5007 C450.8856,239.1377 450.5696,238.7677 450.2606,238.3927 C450.1226,238.2257 449.3616,237.2237 449.8046,237.8297 C449.1476,236.9307 448.5036,236.0257 447.9016,235.0887 C446.8086,233.3837 445.8226,231.6107 444.9246,229.7947 C444.4886,228.9157 444.0746,228.0257 443.6786,227.1277 C443.6336,227.0247 443.2826,226.2207 443.4886,226.6987 C443.6756,227.1327 443.4036,226.4937 443.3906,226.4607 C443.1506,225.8767 442.9166,225.2907 442.6896,224.7017 C441.9036,222.6597 441.1906,220.5887 440.5336,218.5017 C439.1386,214.0667 438.0116,209.5507 437.0626,204.9997 C436.1116,200.4367 435.3426,195.8377 434.6616,191.2267 C434.5006,190.1317 434.3446,189.0357 434.1906,187.9397 C434.1146,187.3917 434.0396,186.8437 433.9656,186.2947 C433.8576,185.5077 434.0416,186.8677 433.9356,186.0807 C433.8836,185.6897 433.8316,185.2977 433.7796,184.9057 C433.4776,182.6107 433.1836,180.3147 432.8936,178.0177 C431.7026,168.5537 430.6246,159.0717 429.9016,149.5597 C429.1826,140.0787 428.8146,130.5627 429.0586,121.0547 C429.1816,116.3217 429.4536,111.5927 429.9106,106.8797 C430.0186,105.7627 430.1386,104.6457 430.2666,103.5297 C430.3316,102.9727 430.3996,102.4147 430.4696,101.8577 C430.4996,101.6187 430.5296,101.3797 430.5606,101.1407 C430.7596,99.6087 430.5026,101.5447 430.6266,100.6667 C430.9636,98.2797 431.3476,95.8997 431.7876,93.5287 C432.5156,89.6187 433.3896,85.7337 434.5606,81.9317 C435.1166,80.1267 435.7386,78.3417 436.4416,76.5887 C436.4896,76.4687 436.8006,75.7077 436.5846,76.2277 C436.3866,76.7067 436.6366,76.1107 436.6626,76.0507 C436.8456,75.6377 437.0286,75.2247 437.2196,74.8147 C437.6536,73.8837 438.1146,72.9637 438.6046,72.0607 C439.4856,70.4367 440.4616,68.8647 441.5446,67.3687 C441.6926,67.1627 441.8466,66.9617 441.9966,66.7567 C441.9596,66.8077 441.5496,67.3087 441.8746,66.9167 C442.1586,66.5757 442.4326,66.2277 442.7216,65.8907 C443.3816,65.1207 444.0746,64.3777 444.8006,63.6687 C445.4396,63.0447 446.1036,62.4447 446.7936,61.8757 C446.9416,61.7527 447.0946,61.6357 447.2426,61.5117 C447.7726,61.0677 446.6496,61.9277 447.1876,61.5557 C447.5756,61.2887 447.9496,61.0047 448.3406,60.7417 C449.7296,59.8067 451.1966,58.9867 452.7216,58.2907 C452.9296,58.1957 453.1396,58.1037 453.3496,58.0117 C453.2156,58.0697 452.4546,58.3637 453.2246,58.0747 C453.5986,57.9347 453.9706,57.7907 454.3476,57.6597 C455.1536,57.3777 455.9716,57.1277 456.7976,56.9087 C457.5686,56.7057 458.3486,56.5297 459.1326,56.3807 C459.5256,56.3057 459.9196,56.2377 460.3146,56.1767 C460.4746,56.1517 461.2166,56.0677 460.5676,56.1367 C459.8506,56.2127 460.9576,56.0997 460.9956,56.0957 C462.6636,55.9247 464.3426,55.8677 466.0186,55.9117 C466.8366,55.9327 467.6536,55.9787 468.4696,56.0477 C468.8796,56.0817 469.2886,56.1227 469.6976,56.1687 C469.9326,56.1947 470.1656,56.2247 470.3986,56.2527 C470.0536,56.2117 469.7106,56.1517 470.2566,56.2407 C473.8136,56.8177 477.2906,57.7327 480.6576,59.0257 C480.9966,59.1567 481.3336,59.2917 481.6716,59.4277 C482.4536,59.7407 481.7486,59.4597 481.6026,59.3957 C481.8256,59.4937 482.0486,59.5897 482.2706,59.6887 C483.1026,60.0607 483.9256,60.4537 484.7386,60.8667 C486.3096,61.6657 487.8436,62.5387 489.3316,63.4827 C490.0486,63.9377 490.7546,64.4087 491.4486,64.8967 C491.8456,65.1747 492.2376,65.4577 492.6256,65.7457 C492.7706,65.8537 492.9146,65.9647 493.0596,66.0717 C493.5916,66.4637 492.4986,65.6137 493.0076,66.0327 C494.3496,67.1377 495.6696,68.2527 496.9236,69.4597 C498.6206,71.0937 501.6216,71.2737 503.2876,69.4597 C504.9106,67.6917 505.0996,64.8397 503.2876,63.0957" id="Fill-19"/><path d="M560.4712,202.6801 C552.8232,177.9841 547.2832,152.6841 543.0662,127.1891 C542.0082,120.7971 541.0332,114.3911 540.1262,107.9751 C539.9152,106.4871 539.7082,104.9971 539.5052,103.5081 C539.4422,103.0371 539.3772,102.5661 539.3142,102.0961 C539.4042,102.7581 539.2972,101.9701 539.2852,101.8791 C539.1602,100.9371 539.0352,99.9951 538.9122,99.0531 C538.4922,95.8311 538.0872,92.6071 537.6962,89.3821 C536.1292,76.4581 534.7852,63.5081 533.5602,50.5471 C532.1782,35.9271 530.9482,21.2941 529.7212,6.6601 C527.8222,8.1071 525.9232,9.5531 524.0252,10.9991 C541.2142,13.9241 558.7692,13.2971 575.6812,8.9951 C574.2222,8.6091 572.7622,8.2241 571.3032,7.8381 C572.0702,8.7211 570.8492,7.0551 571.4702,8.0401 C571.5962,8.2391 571.7282,8.4321 571.8472,8.6351 C572.0282,8.9401 572.1842,9.2561 572.3452,9.5711 C572.7202,10.3071 572.3652,9.6331 572.3122,9.4811 C572.7572,10.7691 573.0892,12.0591 573.2862,13.4101 C573.1222,12.2881 573.2842,13.5611 573.2982,13.7311 C573.3212,13.9871 573.3392,14.2441 573.3552,14.5011 C573.3962,15.1471 573.4162,15.7951 573.4252,16.4421 C573.4442,17.8611 573.3962,19.2801 573.3282,20.6981 C573.0012,27.6341 572.6192,34.5691 572.2472,41.5031 C571.4982,55.4501 570.7032,69.3951 569.8622,83.3371 C568.1902,111.0491 566.3332,138.7511 564.2942,166.4391 C563.7202,174.2301 563.1312,182.0201 562.5292,189.8091 C562.3882,191.6321 562.2452,193.4551 562.1032,195.2781 L561.9862,196.7691 C561.9622,197.0781 562.0112,197.9881 561.8682,198.2601 C561.8982,198.0691 561.9272,197.8791 561.9562,197.6881 C561.9232,197.9011 561.8822,198.1131 561.8352,198.3241 C561.7632,198.6491 561.6742,198.9701 561.5732,199.2861 C561.5022,199.5051 561.0542,200.5151 561.5452,199.4681 C561.4052,199.7681 561.2632,200.0671 561.1022,200.3571 C560.9732,200.5911 560.8222,200.8111 560.6892,201.0421 C560.1402,201.9951 561.1532,200.6691 560.5752,201.1911 C560.5862,201.1801 560.1932,201.5321 560.1892,201.5701 C560.7782,201.1441 560.8842,201.0561 560.5072,201.3071 C560.0892,201.5291 560.2472,201.4661 560.9842,201.1181 C561.4792,200.9811 562.1172,201.0081 562.5912,201.1541 C563.3402,201.5261 563.5112,201.5951 563.1042,201.3621 C563.4992,201.5631 563.8072,201.8561 564.0272,202.2391 C562.6632,200.3281 560.0412,199.2251 557.8702,200.6251 C555.9742,201.8471 554.7932,204.7321 556.2562,206.7811 C557.3302,208.2871 558.5542,209.4371 560.3922,209.8601 C562.6152,210.3721 564.6842,209.5281 566.3572,208.0991 C568.4552,206.3061 569.9202,203.3791 570.5142,200.7171 C571.2952,197.2081 571.2512,193.3891 571.5292,189.8091 C571.8112,186.1641 572.0902,182.5181 572.3662,178.8711 C573.4822,164.1191 574.5462,149.3631 575.5582,134.6031 C577.5712,105.2431 579.3772,75.8691 580.9782,46.4841 C581.4302,38.1821 581.8672,29.8791 582.2842,21.5751 C582.6382,14.5411 582.5352,7.0741 577.6662,1.4741 C576.6192,0.2701 574.7682,-0.0599 573.2882,0.3171 C569.3422,1.3201 565.3522,2.1351 561.3242,2.7351 C561.1632,2.7591 559.6902,2.9651 560.3912,2.8721 C559.9172,2.9351 559.4442,2.9931 558.9692,3.0491 C558.0212,3.1601 557.0722,3.2611 556.1202,3.3501 C554.0632,3.5421 552.0002,3.6811 549.9352,3.7641 C545.9642,3.9251 541.9872,3.8871 538.0212,3.6461 C535.9572,3.5211 533.8962,3.3411 531.8422,3.1071 C531.3672,3.0531 530.8942,2.9951 530.4202,2.9361 C528.8702,2.7431 531.2682,3.0671 529.7222,2.8421 C528.6182,2.6811 527.5172,2.5081 526.4172,2.3211 C524.9482,2.0711 523.7002,2.1951 522.4942,3.1261 C521.4522,3.9311 520.6052,5.2771 520.7212,6.6601 C522.9082,32.7641 525.1092,58.8741 528.1602,84.8941 C531.2242,111.0101 535.1012,137.0601 540.7122,162.7591 C543.8252,177.0081 547.4772,191.1391 551.7922,205.0721 C552.4882,207.3181 554.9642,208.9801 557.3272,208.2161 C559.5882,207.4841 561.2172,205.0881 560.4712,202.6801" id="Fill-21"/><path d="M583.0337,251.0028 C580.2167,243.5618 575.8827,234.7718 567.1257,233.3448 C557.5797,231.7888 549.5667,239.3708 546.0027,247.5768 C542.1617,256.4198 541.0577,267.3588 547.1867,275.5068 C550.0437,279.3048 554.0097,282.4028 558.8017,283.2278 C564.1387,284.1478 569.1937,282.3478 572.8277,278.3258 C580.0687,270.3118 582.1617,258.2488 579.6427,247.9578 C579.0837,245.6698 576.3747,244.0808 574.1077,244.8148 C571.7327,245.5828 570.3647,247.8988 570.9647,250.3498 C571.1797,251.2308 571.3357,252.1178 571.5047,253.0078 C571.6037,253.5318 571.4947,252.9248 571.4857,252.8448 C571.5087,253.0518 571.5327,253.2588 571.5537,253.4668 C571.6077,254.0208 571.6467,254.5758 571.6707,255.1318 C571.7097,256.0348 571.7097,256.9398 571.6677,257.8428 C571.6477,258.2598 571.6207,258.6768 571.5847,259.0928 C571.5657,259.2998 571.5337,259.5078 571.5227,259.7158 C571.4947,260.2438 571.6357,259.1118 571.4947,259.9678 C571.1997,261.7548 570.7827,263.5138 570.1937,265.2288 C570.0347,265.6898 569.8517,266.1398 569.6847,266.5968 C569.5077,267.0828 569.7007,266.5618 569.7357,266.4838 C569.6497,266.6748 569.5647,266.8648 569.4767,267.0538 C569.0687,267.9308 568.6187,268.7888 568.1237,269.6208 C567.8957,270.0038 567.6587,270.3818 567.4087,270.7508 C567.2437,270.9948 566.7327,271.6868 567.2067,271.0818 C566.6577,271.7828 566.0507,272.4438 565.3897,273.0418 C565.1347,273.2728 564.4907,273.6818 565.1297,273.2848 C564.7577,273.5158 564.4067,273.7678 564.0217,273.9788 C563.8587,274.0678 563.6867,274.1428 563.5247,274.2348 C563.5907,274.1978 564.2227,274.0058 563.7387,274.1408 C563.4987,274.2078 563.2647,274.3018 563.0227,274.3678 C562.9367,274.3918 562.1277,274.5888 562.5967,274.4958 C563.0747,274.4018 562.4077,274.5128 562.3467,274.5158 C562.1337,274.5238 561.9207,274.5318 561.7057,274.5318 C561.4227,274.5308 560.2237,274.3468 560.9817,274.5158 C560.5597,274.4218 560.1397,274.3388 559.7247,274.2168 C559.5227,274.1578 559.3157,274.0618 559.1107,274.0178 C558.5587,273.9008 559.6327,274.3068 558.9107,273.9508 C558.1937,273.5988 557.5547,273.1578 556.8667,272.7638 C556.4397,272.5198 556.9947,272.8828 557.0487,272.9258 C556.9057,272.8118 556.7657,272.6958 556.6277,272.5778 C556.3047,272.3018 555.9927,272.0128 555.6927,271.7108 C555.3927,271.4088 555.1047,271.0928 554.8297,270.7678 C554.7107,270.6278 554.5947,270.4868 554.4797,270.3438 C554.5207,270.3948 554.8897,270.9458 554.6337,270.5198 C554.1857,269.7798 553.6917,269.0878 553.2957,268.3148 C553.1467,268.0278 552.7217,267.0458 553.0547,267.8788 C552.9177,267.5348 552.7867,267.1888 552.6677,266.8388 C552.3917,266.0238 552.1727,265.1898 552.0117,264.3448 C551.9697,264.1258 551.9347,263.9058 551.8977,263.6848 C551.7727,262.9548 551.9027,264.2968 551.8927,263.5568 C551.8877,263.1148 551.8247,262.6698 551.8097,262.2268 C551.7757,261.1898 551.8137,260.1508 551.9137,259.1178 C551.9347,258.8958 551.9567,258.6738 551.9857,258.4528 C551.9717,258.5538 551.8697,259.0598 551.9847,258.5448 C552.0987,258.0368 552.1687,257.5168 552.2807,257.0068 C552.5077,255.9848 552.7877,254.9738 553.1147,253.9798 C553.2557,253.5528 553.4037,253.1288 553.5597,252.7078 C553.6387,252.4978 553.7217,252.2898 553.8027,252.0798 C554.0707,251.3758 553.5637,252.6038 553.8637,251.9138 C554.1947,251.1528 554.5607,250.4078 554.9647,249.6828 C555.3697,248.9548 555.8107,248.2458 556.2857,247.5598 C556.4437,247.3308 557.1527,246.4408 556.6197,247.0758 C556.9087,246.7318 557.1917,246.3848 557.4937,246.0508 C558.0457,245.4398 558.6317,244.8568 559.2527,244.3158 C559.3937,244.1928 559.5437,244.0778 559.6827,243.9538 C560.1757,243.5118 559.1017,244.3268 559.6567,243.9778 C560.0177,243.7498 560.3597,243.4908 560.7267,243.2698 C561.0877,243.0538 561.4797,242.8858 561.8367,242.6678 C562.2597,242.4078 561.6357,242.7328 561.5757,242.7568 C561.7397,242.6908 561.9047,242.6278 562.0717,242.5688 C562.4037,242.4508 562.7407,242.3468 563.0827,242.2598 C563.3077,242.2018 563.5427,242.1688 563.7667,242.1068 C564.3627,241.9398 562.9937,242.1318 563.6137,242.1228 C564.0277,242.1168 564.4357,242.0738 564.8517,242.0888 C565.0937,242.0968 565.3287,242.1218 565.5687,242.1388 C565.1857,242.1118 564.9457,242.0218 565.4577,242.1528 C565.8427,242.2508 566.2217,242.3498 566.5997,242.4698 C566.7557,242.5188 567.4057,242.8118 566.8367,242.5428 C566.2697,242.2748 566.9427,242.6078 567.0447,242.6648 C567.3777,242.8528 567.7117,243.0348 568.0317,243.2458 C568.2157,243.3658 568.3877,243.4988 568.5697,243.6208 C568.3047,243.4428 568.0367,243.1658 568.4297,243.5348 C569.0447,244.1098 569.6407,244.6838 570.1827,245.3308 C570.2927,245.4618 570.3987,245.5948 570.5067,245.7268 C570.2867,245.4568 570.1327,245.2168 570.4217,245.6428 C570.6827,246.0268 570.9477,246.4078 571.1947,246.8028 C571.6647,247.5528 572.0957,248.3278 572.4977,249.1168 C572.9027,249.9128 573.2627,250.7278 573.6327,251.5398 C573.2217,250.6398 573.7387,251.8088 573.8537,252.0978 C574.0247,252.5288 574.1907,252.9618 574.3547,253.3958 C575.1857,255.5898 577.4287,257.3348 579.8907,256.5388 C582.0337,255.8448 583.9267,253.3598 583.0337,251.0028" id="Fill-23"/></g></g></g></g><g id="Painting/Vertical" transform="translate(3173.000000, 628.000000) scale(1 1)" blush:width="483" blush:height="583" blush:component="Painting/Vertical"><g id="Painting/Vertical/Painting 3" stroke="none" stroke-width="1" fill="none" fill-rule="evenodd"><g id="Group-9"><polygon id="Fill-1" fill="#E93737" points="0 584 482.999 584 482.999 0 0 0"/><polygon id="Fill-2" fill="#204EB2" points="26.999 553.968 459.846 553.968 459.846 325 26.999 325"/><polygon id="Fill-3" fill="#FC7750" points="27.193 345.903 460.04 345.903 460.04 29 27.193 29"/><g id="Group-8" transform="translate(165.000000, 266.000000)"><path d="M155.9995,78.678 C155.9995,79.114 155.9995,79.564 155.9865,80 L0.0135,80 C-0.0005,79.564 -0.0005,79.114 -0.0005,78.678 C-0.0005,35.606 34.9285,0.678 77.9995,0.678 C121.0715,0.678 155.9995,35.606 155.9995,78.678" id="Fill-4" fill="#F9C818"/><path d="M155.9868,80 C155.2858,122.464 120.6348,156.678 77.9998,156.678 C35.3648,156.678 0.7148,122.464 0.0128,80 L155.9868,80 Z" id="Fill-6" fill="#56ACF6"/></g></g></g></g><rect id="Rectangle" fill="#EECCDC" x="1991" y="1032" width="696" height="79" rx="39.5"/><g id="Small Objects" transform="translate(2090.000000, 102.000000) scale(1 1)" blush:width="498" blush:height="930" blush:component="Small Objects"><g id="Small Objects/Coffee Maker" stroke="none" stroke-width="1" fill="none" fill-rule="evenodd"><g id="Group-12" transform="translate(92.000000, 540.000000)"><polygon id="Fill-1" fill="#0A4343" points="56.64 327.463 187.306 327.463 187.306 267.864 56.64 267.864"/><g id="Group-11" transform="translate(0.000000, 0.203000)" fill="#F6CBC3" blush:skin="500"><path d="M203.2493,61.1071 L130.2893,60.9871 L130.4493,141.1771 L130.3793,141.1771 L130.5993,253.4271 L187.2993,253.3571 L187.2993,268.0171 L56.7093,268.2171 L56.7093,253.5571 L115.9893,253.4271 L115.9893,118.8371 L116.0393,118.8371 L115.9193,60.9871 L40.3093,61.1271 L40.3093,51.9571 C40.3093,43.4771 47.1893,36.6071 55.6693,36.6071 L113.8893,36.4671 C108.1993,33.1471 104.3893,26.9871 104.3893,19.9371 C104.3893,9.3671 112.9593,0.7971 123.5293,0.7971 C134.0993,0.7971 142.6593,9.3671 142.6593,19.9371 C142.6593,26.9871 138.8493,33.1471 133.1693,36.4671 L188.9393,36.5871 C196.8393,36.5871 203.2493,42.9971 203.2493,50.8971 L203.2493,61.1071 Z" id="Fill-2"/><path d="M203.39793,342.2464 L203.996509,53.0370706 L3.04393179e-05,53.5620925 L42.068,108.951 L42.7081628,342.2464 L203.39793,342.2464 Z M195.98,61.057 L195.414,334.246 L50.686,334.246 L50.0605055,106.24774 L16.09,61.52 L195.98,61.057 Z" id="Stroke-4" fill-rule="nonzero"/><polygon id="Fill-6" points="43.2806 344.3157 16.7306 388.7267 230.1066 388.9997 204.0086 344.1367"/><g id="Group-10" transform="translate(201.000000, 85.000000)"><path d="M88.2015,135.8491 C88.2015,166.9381 64.5575,192.1361 35.3875,192.1361 L11.6995,192.1361 L11.6995,17.8271 L32.6945,17.8271 C63.3545,17.8271 88.2015,44.3081 88.2015,76.9841 L88.2015,135.8491 Z M30.7495,0.1171 L0.0995,0.1171 L0.0995,213.3671 L34.3395,213.3671 C73.3295,213.3671 104.9395,181.7571 104.9395,142.7671 L104.9395,74.3171 C104.9395,33.3371 71.7195,0.1171 30.7495,0.1171 L30.7495,0.1171 Z" id="Fill-8"/></g></g></g></g></g><g id="Tall Vase Plant" transform="translate(4979.000000, 653.919992) scale(1 1)" blush:width="1377" blush:height="2347" blush:component="Tall Vase Plant"><g id="Tall Vase Plant/Plant 2" stroke="none" stroke-width="1" fill="none" fill-rule="evenodd"><g id="Tall-Vase-Plant-3" transform="translate(0.000000, 130.000000)"><path d="M811.817443,1109.99103 C811.817443,1109.99103 1196.75744,1033.14603 1336.00144,719.884028 C1475.24444,406.622028 1223.41944,430.323028 1060.70944,588.886028 C897.999443,747.449028 822.234443,924.913028 811.817443,1109.99103" id="Fill-29" fill="#F9C818"/><path d="M724.115343,1512.99783 C724.082343,1512.51083 720.973343,1463.39983 732.775343,1384.13983 C743.650343,1311.10383 769.780343,1196.62283 832.500343,1065.99783 C895.155343,935.511828 964.048343,835.615828 1010.81034,774.790828 C1061.52434,708.825828 1097.95634,673.212828 1098.31834,672.860828 L1103.89534,678.596828 C1103.53634,678.945828 1067.42134,714.262828 1017.03134,779.825828 C970.534343,840.321828 902.028343,939.678828 839.712343,1069.46083 C777.485343,1199.05783 751.539343,1312.59783 740.731343,1385.02583 C729.018343,1463.51783 732.065343,1511.98083 732.097343,1512.46083 L724.115343,1512.99783 Z" id="Fill-30" fill="#0A4343"/><path d="M721.235943,807.364328 C721.235943,807.364328 1059.81694,641.476328 1086.84394,303.682328 C1113.87094,-34.1116722 883.488943,48.5553278 782.530943,241.365328 C681.572943,434.175328 669.212943,624.799328 721.235943,807.364328" id="Fill-31" fill="#237978"/><path d="M659.676343,905.054728 C659.676343,905.054728 295.013343,609.803728 344.717343,226.480728 C394.421343,-156.843272 649.884343,10.5707278 723.810343,257.501728 C797.736343,504.432728 766.230343,719.798728 659.676343,905.054728" id="Fill-32" fill="#F9C818"/><path d="M625.411643,934.447028 C625.411643,934.447028 165.614643,840.967028 32.6806426,478.013028 C-100.254357,115.059028 203.649643,145.577028 383.254643,330.462028 C562.859643,515.346028 634.370643,720.922028 625.411643,934.447028" id="Fill-33" fill="#237978"/><path d="M681.122643,1562.08693 C680.936643,1560.02393 662.819643,1352.74693 682.367643,1092.42993 C693.851643,939.497928 715.895643,798.419928 747.886643,673.114928 C787.916643,516.321928 843.732643,383.890928 913.785643,279.499928 L920.427643,283.957928 C850.895643,387.573928 795.458643,519.146928 755.656643,675.021928 C723.780643,799.856928 701.809643,940.449928 690.354643,1092.89593 C670.842643,1352.58193 688.905643,1559.31393 689.090643,1561.37093 L681.122643,1562.08693 Z" id="Fill-34" fill="#0A4343"/><path d="M521.068943,1819.06403 L513.480943,1816.53103 C514.211943,1814.34003 586.995943,1593.91403 621.861943,1283.12203 C642.333943,1100.64503 645.921943,923.181028 632.526943,755.660028 C615.789943,546.350028 572.340943,352.066028 503.387943,178.204028 L510.824943,175.254028 C580.084943,349.890028 623.716943,544.991028 640.510943,755.140028 C653.940943,923.195028 650.333943,1101.20003 629.790943,1284.20903 C594.815943,1595.79203 521.801943,1816.86703 521.068943,1819.06403" id="Fill-35" fill="#0A4343"/><path d="M603.106943,2216.72903 L731.106943,2216.72903 C858.132435,2216.72903 961.106943,2113.75452 961.106943,1986.72903 L961.106943,1483.72903 L961.106943,1483.72903 L373.106943,1483.72903 L373.106943,1986.72903 C373.106943,2113.75452 476.08145,2216.72903 603.106943,2216.72903 Z" id="Fill-36" fill="#204EB2"/><path d="M639.113843,1031.96973 C635.217843,967.330728 609.652843,892.980728 563.129843,810.985728 C525.266843,744.254728 473.391843,672.151728 408.943843,596.679728 C307.352843,477.710728 201.322843,381.985728 160.451843,346.351728 C158.855843,344.960728 157.828843,344.064728 157.415843,343.688728 L162.797843,337.769728 C163.193843,338.129728 164.178843,338.987728 165.708843,340.321728 C206.713843,376.072728 313.091843,472.111728 415.027843,591.484728 C479.804843,667.343728 531.974843,739.865728 570.087843,807.037728 C617.218843,890.104728 643.128843,965.620728 647.098843,1031.48873 L639.113843,1031.96973 Z" id="Fill-38" fill="#0A4343"/></g></g></g><g id="Tall Vase Plant" transform="translate(967.000000, 653.919992) scale(1 1)" blush:width="1377" blush:height="2347" blush:component="Tall Vase Plant"><defs><polygon id="tall-vase-plantplant-6-path-1" points="0.707388507 0.033 535.211993 0.033 535.211993 874.164744 0.707388507 874.164744"/><polygon id="tall-vase-plantplant-6-path-3" points="0 0.1738 333.4923 0.1738 333.4923 611.1738 0 611.1738"/></defs><g id="Tall Vase Plant/Plant 6" stroke="none" stroke-width="1" fill="none" fill-rule="evenodd"><g id="Group-21" transform="translate(74.000000, 632.000000)"><g id="Group-3" transform="translate(227.000000, 0.970000)"><mask id="tall-vase-plantplant-6-mask-2" fill="#fff"><use xlink:href="#tall-vase-plantplant-6-path-1"/></mask><g id="Clip-2"/><path d="M64.5263,677.1738 C64.5263,677.1738 17.5263,591.1738 45.5263,487.1738 C73.5263,383.1738 -25.4737,288.1738 7.5263,207.1738 C40.5263,126.1738 101.5263,6.1738 101.5263,6.1738 C101.5263,6.1738 255.5263,-27.8262 311.5263,64.1738 C367.5263,156.1738 476.5263,175.1738 468.5263,273.1738 C460.5263,371.1738 458.5263,400.1738 515.5263,451.1738 C572.5263,502.1738 483.5263,733.1738 523.5263,847.1738 C563.5263,961.1738 64.5263,677.1738 64.5263,677.1738" id="Fill-1" fill="#E93737" mask="url(#tall-vase-plantplant-6-mask-2)"/></g><path d="M328.5263,7.1438 C328.5263,7.1438 440.5263,108.1438 483.5263,339.1438 C526.5263,570.1438 569.1273,618.9518 553.8273,806.0478 C547.5263,818.1438 291.5263,678.1438 291.5263,678.1438 C291.5263,678.1438 248.5263,611.1438 253.5263,545.1438 C258.5263,479.1438 286.5663,415.7898 242.0463,328.4668 C197.5263,241.1438 216.5263,190.1438 328.5263,7.1438" id="Fill-4" fill="#EC7070"/><path d="M719.5263,611.1438 C719.5263,611.1438 776.5263,618.1438 776.5263,695.1438 L776.5263,1106.1438 L590.5263,1110.1438 C590.5263,1110.1438 532.5263,993.1438 432.5263,955.1438 C332.5263,917.1438 567.5263,630.1438 567.5263,630.1438 C567.5263,630.1438 687.5263,592.1438 719.5263,611.1438" id="Fill-6" fill="#0A4343"/><path d="M92.5263,595.1438 C92.5263,595.1438 45.5263,626.1438 58.5263,692.1438 C71.5263,758.1438 88.5263,776.1438 49.5263,840.1438 C10.5263,904.1438 -13.4737,1058.1438 110.5263,1206.1438 C110.5263,1206.1438 242.5263,1232.1438 309.5263,1140.1438 C376.5263,1048.1438 367.5263,1016.1438 479.5263,975.1438 C591.5263,934.1438 522.5263,706.1438 595.5263,660.1438 C668.5263,614.1438 698.5263,605.1438 698.5263,605.1438 L92.5263,595.1438 Z" id="Fill-8" fill="#1BC0D7"/><g id="Group-12" transform="translate(0.000000, 594.970000)"><mask id="tall-vase-plantplant-6-mask-4" fill="#fff"><use xlink:href="#tall-vase-plantplant-6-path-3"/></mask><g id="Clip-11"/><path d="M92.5263,0.1738 C92.5263,0.1738 38.5263,22.1738 58.5263,97.1738 C78.5263,172.1738 57.5263,169.1738 9.5263,301.1738 C-38.4737,433.1738 110.5263,611.1738 110.5263,611.1738 C110.5263,611.1738 119.5263,439.1738 190.5263,341.1738 C261.5263,243.1738 241.4583,37.4268 333.4923,5.8008 L92.5263,0.1738 Z" id="Fill-10" fill="#237978" mask="url(#tall-vase-plantplant-6-mask-4)"/></g><path d="M566.0224,1105.367 L809.1954,1103.4913 C835.7294,1103.289 858.8714,1121.478 864.9424,1147.309 L963.6244,1567.188 C981.2654,1642.25 924.3094,1714.144 847.2024,1714.144 L567.5864,1714.144 C494.7504,1714.144 438.8284,1649.587 449.2154,1577.494 L510.2244,1154.079 C514.2294,1126.284 537.9404,1105.584 566.0224,1105.367" id="Fill-13" fill="#FC7750"/><path d="M780.5263,826.1438 C780.5263,826.1438 655.5263,1038.1438 746.5263,1146.1438 C837.5263,1254.1438 913.5263,1231.1438 944.5263,1355.1438 C975.5263,1479.1438 1210.5263,1396.1438 1210.5263,1396.1438 C1210.5263,1396.1438 1233.5263,1275.1438 1186.5263,1195.1438 C1139.5263,1115.1438 1082.5263,1124.1438 1081.5263,1009.1438 C1080.5263,894.1438 1018.5263,822.1438 1018.5263,822.1438 L780.5263,826.1438 Z" id="Fill-15" fill="#237978"/><path d="M892.1562,822.9285 C892.1562,822.9285 856.5262,972.1435 915.5262,1090.1435 C974.5262,1208.1435 1150.5262,1250.1435 1210.5262,1396.1435 C1210.5262,1396.1435 1254.5262,1281.1435 1205.5262,1208.1435 C1156.5262,1135.1435 1106.5262,1121.1435 1097.5262,1025.1435 C1088.5262,929.1435 1018.5262,822.1435 1018.5262,822.1435 L892.1562,822.9285 Z" id="Fill-17" fill="#1BC0D7"/><path d="M599.7734,1105.0149 L557.4054,1105.0149 C557.4054,1105.0149 515.9374,1104.9199 507.7324,1160.5319 C499.5264,1216.1439 446.5264,1586.1439 446.5264,1586.1439 C446.5264,1586.1439 440.5264,1639.1439 468.5264,1668.1439 C496.5264,1697.1439 517.1274,1713.7959 560.3274,1714.9699 C560.3274,1714.9699 520.5264,1663.1439 524.5264,1575.1439 C528.5264,1487.1439 571.5264,1194.1439 571.5264,1194.1439 C571.5264,1194.1439 581.0194,1111.8859 599.7734,1105.0149" id="Fill-19" fill="#FEA78D"/></g></g></g><path d="M6914.3096,2999.9198 L5911.3096,2999.9198 C5864.9176,2999.9198 5827.3096,2962.3118 5827.3096,2915.9198 L5827.3096,2887.9198 C5827.3096,2841.5278 5864.9176,2803.9198 5911.3096,2803.9198 L6914.3096,2803.9198 C6960.7016,2803.9198 6998.3096,2841.5278 6998.3096,2887.9198 L6998.3096,2915.9198 C6998.3096,2962.3118 6960.7016,2999.9198 6914.3096,2999.9198" id="Object-1" fill="#E93737"/><g id="Sofa" transform="translate(1787.838267, 1386.920000)"><path d="M3620.65393,994 L247.288933,994 C199.340933,994 160.470933,955.131 160.470933,907.183 L160.470933,86.817 C160.470933,38.869 199.340933,0 247.288933,0 L3620.65393,0 C3668.60193,0 3707.47093,38.869 3707.47093,86.817 L3707.47093,907.183 C3707.47093,955.131 3668.60193,994 3620.65393,994" id="Fill-50" fill="#0A4343"/><polygon id="Fill-51" fill="#237978" points="376.471733 1113 3429.47173 1113 3429.47173 788 376.471733 788"/><polygon id="Fill-52" fill="#0A4343" points="273.471333 1349 196.471333 1604 257.471333 1600 443.749333 1348.462"/><polygon id="Fill-53" fill="#0A4343" points="3589.74913 1358.5378 3666.74913 1613.5378 3605.74913 1609.5378 3419.47113 1357.9998"/><path d="M461.471333,406 C461.471333,406 471.471333,395 585.471333,418 C699.471333,441 870.308333,382.639 894.890333,400.319 C919.471333,418 915.471333,758 980.471333,845 C1045.47133,932 817.471333,805 607.471333,894 C397.471333,983 567.471333,633 567.471333,633 L461.471333,406 Z" id="Fill-54" fill="#1BC0D7"/><path d="M339.847733,306.1448 C339.847733,306.1448 305.305733,575.6878 514.604733,830.3148 C723.902733,1084.9408 640.393733,632.6578 519.106733,459.7448 C397.820733,286.8308 341.897733,238.3278 339.847733,306.1448" id="Fill-55" fill="#EECCDC"/><path d="M3474.47133,694 C3472.44933,688.351 3464.47133,607 3469.47133,505 C3474.47133,403 3323.08033,520.521 3113.47133,483 C2995.12233,461.815 2812.92733,420.795 2845.47133,517 C2879.45933,617.473 2794.47133,793 2854.47133,802 C2914.47133,811 3231.47133,753 3370.47133,815 C3509.47133,877 3503.47133,775 3474.47133,694" id="Fill-56" fill="#1BC0D7"/><path d="M3.04353319,616.7837 L261.576533,1327.3087 C268.721533,1346.9477 287.360533,1360.0417 308.258533,1360.1047 L3553.77353,1369.89293 C3575.11653,1369.9567 3594.13153,1356.4237 3601.06153,1336.2367 L3855.83453,594.0317 C3866.64053,562.5527 3844.14453,529.5297 3810.89453,528.0627 L3569.89853,517.4307 C3550.18653,516.5607 3531.81753,527.4027 3523.05253,545.0807 L3314.17053,966.3687 C3305.77653,983.2997 3288.52753,994.0257 3269.63053,994.0677 L593.174533,999.9307 C573.830533,999.9727 556.208533,988.8177 547.972533,971.3147 L359.389533,570.5757 C350.938533,552.6177 332.637533,541.3857 312.799533,541.9817 L48.3795332,549.9287 C14.4375332,550.9487 -8.56746681,584.8737 3.04353319,616.7837" id="Fill-57" fill="#165C5D"/></g></g><g id="Pet" transform="translate(5768.214000, 2266.420000) scale(1 1)" blush:width="1558" blush:height="1091" blush:component="Pet"><g id="Pet/None" stroke="none" stroke-width="1" fill="none" fill-rule="evenodd" fill-opacity="0"/></g><g transform="translate(3128.000000, 293.000000) scale(1 1)" blush:width="2330" blush:height="2500" id="Master/Character/Sitting On Floor" blush:component="Master/Character/Sitting On Floor"><defs><polygon id="mastercharactersitting-on-floor-path-1" points="0.2961 0.0297382716 168.575 0.0297382716 168.575 293.567627 0.2961 293.567627"/><polygon id="mastercharactersitting-on-floor-path-3" points="0 0.946525702 1640.2957 0.946525702 1640.2957 419.0652 0 419.0652"/><polygon id="mastercharactersitting-on-floor-path-5" points="0.9712 0.506 494.2962 0.506 494.2962 579.0644 0.9712 579.0644"/><polygon id="mastercharactersitting-on-floor-path-7" points="0.893394597 0.106 258.492632 0.106 258.492632 218.7317 0.893394597 218.7317"/></defs><g id="Master/Character/Sitting On Floor" stroke="none" stroke-width="1" fill="none" fill-rule="evenodd" blush:has-customizable-skin="true"><g id="Upper Body" transform="translate(911.000000, 1121.000000) scale(1 1)" blush:width="1578" blush:height="1152" blush:component="Upper Body"><defs><polygon id="upper-bodywith-laptop-path-1" points="0.1808 0.1553 298.703924 0.1553 298.703924 343 0.1808 343"/><polygon id="upper-bodywith-laptop-path-3" points="0.550418291 0.388 141.311628 0.388 141.311628 92.088834 0.550418291 92.088834"/></defs><g id="Upper Body/With Laptop" stroke="none" stroke-width="1" fill="none" fill-rule="evenodd"><path d="M724.954254,220 C724.954254,220 721.26343,301.153386 673.924004,329.799638 C630.972611,355.790794 721.968632,506.610475 819.857852,497.613536 C873.442212,492.688212 886,346.158072 886,346.158072 C886,346.158072 842.733964,337.796917 858.715877,271.819367 L724.954254,220 Z" id="Neck" fill="#C26E5E" blush:skin="500"/><path d="M803.337113,302.515641 C739.876612,294.840687 694.077698,253.11575 687.664652,183.898064 C669.216286,186.83496 664.86504,138.764927 670.003065,123.322958 C675.146083,107.858975 691.933027,116.900812 691.933027,116.900812 C692.862251,114.457234 693.652358,111.898916 694.303348,109.225857 C722.02532,-4.48555283 799.669805,0.0243586862 799.669805,0.0243586862 C942.344355,7.45715716 908.914243,153.120195 900.762895,191.763142 C892.610548,230.410091 864.683894,309.927426 803.337113,302.515641 Z" id="Head" fill="#C26E5E" blush:skin="500"/><g id="Group-25" transform="translate(266.000000, 320.000000)"><g id="Group-19" transform="translate(0.000000, 0.612000)"><path d="M105.050047,289.936251 C33.5168788,376.727653 8.92577071,446.699768 31.2767231,499.852598 C64.8031518,579.581843 146.951413,496.522302 192.490195,395.604271 C222.849383,328.325583 260.283957,276.925705 304.793918,241.404634 L105.050047,289.936251 Z" id="Path" fill="#C26E5E" transform="translate(164.044509, 386.561708) rotate(-10.000000) translate(-164.044509, -386.561708)" blush:skin="500"/><g id="Group-3" transform="translate(695.000000, 361.000000)"><mask id="upper-bodywith-laptop-mask-2" fill="#fff"><use xlink:href="#upper-bodywith-laptop-path-1"/></mask><g id="Clip-2"/></g><path d="M280.8551,41.1066 C363.7551,15.4706 389.3011,14.0266 389.3011,14.0266 L476.8081,32.8846 C476.8081,32.8846 524.7691,95.9186 528.8791,152.1006 C528.8791,152.1006 530.2491,78.1046 561.7671,27.4036 C561.7671,27.4036 700.4791,26.1286 752.7731,80.7306 C835.3711,166.9736 833.813167,318.3006 833.813167,318.3006 L697.5221,332.3166 L752.7731,255.388 C752.7731,255.388 756.263179,568.804637 748.041179,649.652637 C644,764.422821 270,675.591107 270,675.591107 C270,675.591107 278.1151,416.25183 279.4851,345.3136 C280.8551,274.37537 254.6201,283.9566 218.4531,371.8906 C188.8861,443.7816 94.8851,294.7296 94.8851,294.7296 C94.8851,294.7296 152.5811,80.7726 280.8551,41.1066 Z" id="Fill-4" fill="#1BC0D7"/><path d="M704.0424,431.7121 C704.0424,431.7121 771.3394,407.5801 839.7714,421.8301 C839.7714,421.8301 838.8854,399.4921 839.5874,369.9961 C840.1634,345.7711 853.4304,308.2791 805.5564,312.3171 C749.8404,317.0161 725.9594,317.5081 701.7344,328.4671 C701.7344,328.4671 695.9674,408.6411 704.0424,431.7121" id="Fill-6" fill="#FCEBEC"/><path d="M63.9394,341.7921 L93.2847063,249.4471 C93.2847063,249.4471 201.904517,226.7581 244.9394,320.6421 L212.685338,404.2371 C212.685338,404.2371 152.370466,315.2971 63.9394,341.7921" id="Fill-10" fill="#237978"/><g id="Group-14" transform="translate(338.000000, 0.000000)"><mask id="upper-bodywith-laptop-mask-4" fill="#fff"><use xlink:href="#upper-bodywith-laptop-path-3"/></mask><g id="Clip-13"/><path d="M52.6986,0.4875 C52.6986,0.4875 -2.7084,19.2415 0.7016,24.3555 C4.1106,29.4695 102.4766,94.8915 109.8506,91.9955 C117.2246,89.0985 144.8776,36.6905 140.9276,31.4235 C136.9766,26.1565 57.4346,-1.4785 52.6986,0.4875" id="Fill-12" fill="#237978" mask="url(#upper-bodywith-laptop-mask-4)"/></g><path d="M650.6088,23.2834 C650.6088,23.2834 698.2988,57.1534 693.5648,61.0734 C688.8308,64.9934 575.8238,99.4234 569.5908,94.5314 C563.3598,89.6394 551.9168,31.4994 557.2118,27.5884 C562.5088,23.6774 646.6358,20.0404 650.6088,23.2834" id="Fill-15" fill="#237978"/><path d="M123.259851,445.031349 C166.893554,466.002349 153.233851,474.731349 174.524851,487.829349 C195.815851,500.928349 228.449851,535.078349 239.694851,527.258349 C250.938851,519.438349 247.765851,512.512349 236.068851,502.885349 C224.372851,493.257349 188.169851,461.709349 192.145851,456.921349 C196.122851,452.133349 257.341851,520.465349 275.349851,508.401349 C293.357851,496.336349 254.631851,465.557349 235.864851,452.620349 C217.098851,439.684349 206.592851,428.138349 212.609851,426.196349 C218.626851,424.255349 289.502851,499.367349 303.228851,487.951349 C316.956851,476.535349 291.560851,450.435349 272.692851,437.256349 C253.825851,424.077349 224.797851,402.906349 224.797851,402.906349 C224.797851,402.906349 262.223851,418.298349 291.053851,445.811349 C319.883851,473.323349 326.829851,471.564349 330.441851,465.221349 C334.053851,458.878349 304.306851,424.060349 304.306851,424.060349 C304.306851,424.060349 305.316851,383.621349 266.957851,370.249349 C228.598851,356.878349 199.545851,336.218349 159.169851,339.440349 C118.793851,342.660349 106.355352,366.565153 106.355352,366.565153 C106.355352,366.565153 79.6261472,424.060349 123.259851,445.031349 Z" id="Fill-8" fill="#C26E5E" transform="translate(214.499157, 433.756203) rotate(30.000000) translate(-214.499157, -433.756203)" blush:skin="500"/><path d="M662.9867,209.88 L572.1647,209.88 C568.4677,209.88 565.4707,206.884 565.4707,203.188 L565.4707,195.319 C565.4707,191.624 568.4677,188.627 572.1647,188.627 L662.9867,188.627 C666.6827,188.627 669.6787,191.624 669.6787,195.319 L669.6787,203.188 C669.6787,206.884 666.6827,209.88 662.9867,209.88" id="Fill-17" fill="#237978"/></g><g id="Group-24" transform="translate(397.000000, 175.000000)"><path d="M185.2874,372.4279 L2.5724,321.7809 C2.5724,321.7809 -8.7866,309.7899 24.6594,306.6349 C58.1044,303.4799 407.5584,294.1429 407.5584,294.1429 L185.2874,372.4279 Z" id="Fill-20" fill="#204EB2"/><path d="M703.3129,371.8791 L190.8269,371.8791 C181.3339,371.8791 173.6369,364.1841 173.6369,354.6901 L220.1609,17.2031 C220.1609,7.7101 227.8559,0.0141 237.3489,0.0141 L749.8349,0.0141 C759.3289,0.0141 767.0249,7.7101 767.0249,17.2031 L720.5009,354.6901 C720.5009,364.1841 712.8059,371.8791 703.3129,371.8791" id="Fill-22" fill="#3267C8"/></g><g id="Group-2" transform="translate(893.239277, 513.555823) scale(-1, 1) rotate(-72.000000) translate(-893.239277, -513.555823) translate(800.239277, 441.555823)"><path d="M34.8019558,0.721228206 C34.8019558,0.721228206 30.1385768,5.272 25.5025768,10.938 C20.8665768,16.604 24.9875768,17.635 14.6855768,28.452 C4.38357684,39.27 -14.1604232,66.57 18.2905768,108.294 C50.7435768,150.018 61.5605768,146.411 74.9535768,139.2 C88.3455768,131.988 89.8915768,126.838 115.131577,124.262 C140.371577,121.687 164.581577,96.961 164.066577,90.78 L163.551577,84.599 C163.551577,84.599 186.730577,75.842 185.186577,66.055 C183.640577,56.268 176.944577,57.298 176.944577,57.298 C176.944577,57.298 181.580577,52.662 177.974577,44.42 C174.368577,36.179 157.370577,37.724 137.795577,40.3 C118.222577,42.875 67.7415768,53.177 64.6505768,51.117 C61.5605768,49.057 62.5905768,45.966 74.4375768,44.42 C86.2855768,42.875 134.190577,42.36 134.190577,28.967 C134.190577,15.574 119.767577,12.999 91.9515768,13.514 C64.1355768,14.029 58.9845768,12.483 52.2885768,15.06 L39.9277765,16.4968824 C36.5105627,5.9797796 34.8019558,0.721228206 34.8019558,0.721228206 Z" id="Fill-12" fill="#C26E5E" blush:skin="500"/><path d="M177.350177,57.2402 C177.350177,57.2402 178.830177,56.1722 167.807177,60.3812 C163.793177,61.9132 158.133177,63.5122 150.159177,65.0242 C120.282177,70.6902 73.4081768,80.9932 58.9851768,83.0532 C44.5611768,85.1142 56.4091768,88.2042 89.3761768,81.5082 C122.343177,74.8112 161.588177,65.8282 163.350177,65.2402 C166.350177,64.2402 175.350177,61.2402 177.350177,57.2402" id="Fill-14" fill="#995B5D"/><path d="M116.349877,99.2405 C103.608877,102.4255 82.3498768,107.2405 80.1038768,107.7785 C76.0968768,108.7395 68.2558768,110.3545 68.2558768,110.3545 C68.2558768,110.3545 68.3498768,113.2405 92.3498768,108.2405 C98.3048768,107.0005 109.349877,105.2405 116.349877,103.2405 C122.788877,101.4005 146.037877,95.4165 149.128877,92.8405 C152.218877,90.2645 152.733877,87.6895 152.733877,87.6895 C152.733877,87.6895 128.349877,96.2405 116.349877,99.2405 Z" id="Fill-16" fill="#995B5D"/></g></g></g></g><g id="Lower Body/Sitting on Floor" transform="translate(1165.000000, 2062.000000) scale(-1, 1) translate(-1165.000000, -2062.000000) translate(0.000000, 1624.000000) scale(1 1)" blush:width="2330" blush:height="876" blush:component="Lower Body/Sitting on Floor"><defs><polygon id="lower-bodysitting-on-floorlegs-crossed-1-path-1" points="0 0.216 1141.521 0.216 1141.521 422.785934 0 422.785934"/></defs><g id="Lower Body/Sitting on Floor/Legs Crossed 1" stroke="none" stroke-width="1" fill="none" fill-rule="evenodd"><g id="Group-46" transform="translate(69.000000, 357.000000)"><path d="M583.8821,306.5582 C583.8821,306.5582 541.1281,325.1022 535.9771,317.8902 C530.8261,310.6792 575.1251,355.4942 575.1251,355.4942 L607.0621,337.4642 L583.8821,306.5582 Z" id="Fill-1" fill="#C26E5E" blush:skin="500"/><path d="M583.8821,306.5582 C583.8821,306.5582 541.1281,325.1022 535.9771,317.8902 C530.8261,310.6792 575.1251,355.4942 575.1251,355.4942 L607.0621,337.4642 L583.8821,306.5582 Z" id="Stroke-3" stroke="#000" stroke-width="3"/><path d="M241.3362,329.2232 C241.3362,329.2232 178.4932,365.7952 228.4582,422.9722 C278.4232,480.1492 455.1052,441.0012 455.1052,441.0012 L459.7412,418.3362 C459.7412,418.3362 282.0292,332.3142 241.3362,329.2232" id="Fill-5" fill="#F0ECEC"/><path d="M241.3362,329.2232 C241.3362,329.2232 216.6112,334.3732 208.8842,362.7042 C201.1582,391.0362 218.1892,424.0292 243.1552,435.0902 C243.1552,435.0902 211.2912,364.3752 267.2642,335.2092 L241.3362,329.2232 Z" id="Fill-7" fill="#E0D3CC"/><path d="M261.5242,443.1266 C261.5242,443.1266 284.0902,397.2176 294.3922,398.2476 C304.6942,399.2776 416.2152,405.0666 427.4192,402.9446 L464.3772,417.8206 L457.8422,441.4046 C457.8422,441.4046 320.3452,473.5836 261.5242,443.1266" id="Fill-9" fill="#E7DADA"/><path d="M291.8167,356.524 C291.8167,356.524 283.5747,416.276 295.4217,416.276 C307.2697,416.276 310.3607,349.312 312.4207,372.492 C314.4817,395.671 316.0267,425.033 323.7537,416.276 C331.4797,407.519 315.5117,342.616 322.2077,360.644 C328.9037,378.673 333.0247,412.67 343.8427,412.155 C354.6597,411.64 339.7217,377.128 345.3877,376.097 C351.0537,375.067 362.3857,420.912 372.1727,415.246 C381.9607,409.58 363.9317,371.977 374.2337,385.884 C384.5357,399.793 387.6267,416.276 396.8987,414.215 C406.1707,412.155 395.8677,394.127 390.2017,385.37 C384.5357,376.613 297.4827,343.13 294.9067,347.252 C292.3317,351.373 291.8167,356.524 291.8167,356.524" id="Fill-11" fill="#F9F9F9"/><g id="Group-15" transform="translate(0.000000, 0.784000)"><mask id="lower-bodysitting-on-floorlegs-crossed-1-mask-2" fill="#fff"><use xlink:href="#lower-bodysitting-on-floorlegs-crossed-1-path-1"/></mask><g id="Clip-14"/><path d="M424.7141,414.4617 C424.7141,414.4617 216.6111,354.1937 119.7711,277.4427 C22.9311,200.6917 -33.2159,126.0017 21.3851,42.0397 C75.9861,-41.9233 204.2481,21.9497 266.0611,49.2507 C327.8741,76.5517 530.5701,115.1607 627.2801,114.9157 C723.9911,114.6697 853.7981,107.4577 921.2771,87.3687 C988.7561,67.2797 1096.4131,36.8887 1129.3811,118.7907 C1162.3471,200.6917 1123.7141,281.0497 1067.0521,308.3497 C1010.3901,335.6497 835.7691,394.3727 746.1411,388.7067 L656.5121,383.0397 C656.5121,383.0397 617.8791,340.2867 628.1811,277.9587 L574.0951,317.1067 C574.0951,317.1067 543.1891,316.5917 531.8561,312.4707 C520.5241,308.3497 457.6811,459.2757 424.7141,414.4617" id="Fill-13" fill="#56ACF6" mask="url(#lower-bodysitting-on-floorlegs-crossed-1-mask-2)"/></g><path d="M479.8304,422.4576 C479.8304,422.4576 570.4894,455.9386 592.1234,469.8476 C613.7584,483.7556 658.5724,495.6026 680.2074,480.6646 C701.8414,465.7266 688.9644,391.5516 688.9644,391.5516 C688.9644,391.5516 616.3334,375.0666 608.0924,363.7346 C599.8504,352.4026 533.9164,314.8006 533.9164,314.8006 L479.8304,422.4576 Z" id="Fill-16" fill="#C26E5E" blush:skin="500"/><path d="M681.1965,397.4195 C681.1965,397.4195 685.8735,385.3695 700.2965,387.9445 C714.7195,390.5215 849.1625,375.5825 887.7955,364.7655 C926.4275,353.9475 1008.3305,430.6985 972.7875,484.7845 C937.2455,538.8715 888.8255,513.1155 845.0415,509.5105 C801.2575,505.9045 716.2645,518.2675 697.2055,512.0855 C678.1465,505.9045 659.0875,494.5715 658.5725,481.1795 C658.0575,467.7865 681.1965,397.4195 681.1965,397.4195" id="Fill-18" fill="#F0ECEC"/><path d="M877.7664,371.8189 C877.7664,371.8189 934.6694,399.7929 944.9724,438.4249 C955.2744,477.0579 950.4914,507.9839 950.4914,507.9839 C950.4914,507.9839 1004.4904,482.5399 973.7014,422.1069 C942.9114,361.6739 894.5234,356.7079 877.7664,365.6299 C861.0094,374.5519 877.7664,371.8189 877.7664,371.8189" id="Fill-20" fill="#E0D3CC"/><path d="M871.4646,370.5123 C871.4646,370.5123 848.1316,407.5193 845.0416,434.3043 C845.0416,434.3043 847.1016,439.4553 821.3466,438.9413 C795.5906,438.4253 675.5176,412.0763 675.5176,412.0763 C675.5176,412.0763 649.6886,473.9503 659.0246,489.9273 C668.3596,505.9053 845.0416,475.5133 845.0416,475.5133 C845.0416,475.5133 852.2526,471.3923 856.8886,474.9983 C861.5246,478.6043 885.4606,511.6303 918.3066,518.2963 C918.3066,518.2963 867.1906,490.9663 863.0696,454.9083 C858.9486,418.8513 871.4646,370.5123 871.4646,370.5123" id="Fill-22" fill="#EEDFD9"/><path d="M701.8416,408.0348 C701.8416,408.0348 703.3866,443.0608 696.6906,462.6358 C689.9936,482.2098 684.4326,499.2828 695.9696,497.1848 C707.5076,495.0878 719.8706,417.3058 713.1746,410.6098 C706.4776,403.9138 702.3566,401.8528 701.8416,408.0348" id="Fill-24" fill="#FFF"/><path d="M720.9006,412.1549 C720.9006,412.1549 722.4456,447.1819 715.7496,466.7569 C709.0526,486.3309 703.4916,503.4029 715.0286,501.3049 C726.5666,499.2089 738.9296,421.4269 732.2326,414.7309 C725.5366,408.0349 721.4156,405.9739 720.9006,412.1549" id="Fill-26" fill="#FFF"/><path d="M788.3796,413.3853 C788.3796,413.3853 789.9246,445.4233 783.2286,463.3263 C776.5316,481.2303 770.9706,496.8463 782.5076,494.9273 C794.0456,493.0083 806.4086,421.8653 799.7116,415.7403 C793.0156,409.6153 788.8946,407.7313 788.3796,413.3853" id="Fill-28" fill="#FFF"/><path d="M814.135,417.2809 C814.135,417.2809 815.68,447.1849 808.984,463.8959 C802.287,480.6079 796.726,495.1829 808.263,493.3929 C819.801,491.6019 832.164,425.1969 825.467,419.4799 C818.771,413.7619 814.65,412.0039 814.135,417.2809" id="Fill-30" fill="#FFF"/><path d="M832.6423,415.1246 C832.6423,415.1246 838.4183,444.5056 834.1633,461.9986 C829.9083,479.4916 826.4733,494.7096 837.6393,491.2986 C848.8053,487.8876 851.6123,420.3986 844.1723,415.6906 C836.7313,410.9826 832.4023,409.8266 832.6423,415.1246" id="Fill-32" fill="#FFF"/><path d="M744.8552,414.4049 C744.8552,414.4049 742.8102,449.4069 734.1472,468.1939 C725.4832,486.9799 718.2052,503.3939 729.8972,502.4879 C741.5882,501.5819 761.8412,425.4719 755.8652,418.1269 C749.8882,410.7799 746.0002,408.3089 744.8552,414.4049" id="Fill-34" fill="#FFF"/><path d="M754.9553,413.7564 C754.9553,413.7564 761.9163,448.1194 758.3383,468.4954 C754.7593,488.8714 751.9143,506.6014 762.9873,502.7384 C774.0593,498.8764 774.2043,420.1184 766.5503,414.5424 C758.8953,408.9664 754.5053,407.5694 754.9553,413.7564" id="Fill-36" fill="#FFF"/><path d="M677.7112,409.7262 C677.7112,409.7262 710.0832,416.7912 703.3872,455.9392 C696.6902,495.0872 656.0132,484.0552 656.0132,484.0552 C656.0132,484.0552 646.3702,419.6602 677.7112,409.7262" id="Fill-38" fill="#FFF"/><polygon id="Stroke-40" fill="#000" fill-rule="nonzero" points="222.064539 67.357022 506.395 291.638 567.949 317.564 633.126623 276.966138 856.941623 135.370138 859.080177 138.750462 635.253319 280.353906 568.306142 322.054535 504.343936 295.114337 219.587261 70.497578"/><path d="M640.0286,255.5631 C640.0286,255.5631 593.6696,268.4401 580.7916,290.5901 C567.9136,312.7401 572.0346,350.8571 610.1526,366.8261 C648.2706,382.7941 663.7236,396.1871 653.9366,370.9471 C644.1496,345.7071 626.1206,299.3461 640.0286,255.5631" id="Fill-42" fill="#AFDEFF"/><path d="M505.0706,284.9234 C505.0706,284.9234 500.4346,336.4344 472.1036,376.6124 C443.7736,416.7914 418.5326,420.9114 427.8046,430.6984 C437.0766,440.4854 451.4996,445.1214 460.7716,457.4854 C470.0436,469.8474 469.5286,469.3314 491.1626,443.5764 C512.7976,417.8204 560.1876,360.6444 561.2176,309.6494 C561.2176,309.6494 509.1916,267.9254 505.0706,284.9234" id="Fill-44" fill="#AFDEFF"/></g></g></g><g id="Expression" transform="translate(1633.000000, 1204.000000) scale(1 1)" blush:width="202" blush:height="224" blush:component="Expression"><g id="Expression/Happy" stroke="none" stroke-width="1" fill="none" fill-rule="evenodd"><g id="Group-124" transform="translate(25.000000, 52.000000)" fill-rule="nonzero"><path d="M98.9388073,0.515726772 L102.747593,1.73767323 L102.375135,2.93095324 C102.075892,3.9043293 101.742122,5.01790967 101.382468,6.25291663 C100.354215,9.78380887 99.3257634,13.5761133 98.3662837,17.478955 C97.2996742,21.8175645 96.3854385,26.0250163 95.6702376,29.9976992 L95.4631649,31.1740325 C93.7257688,41.2776329 93.4803733,48.9926374 95.0328764,53.1417647 L95.1244408,53.3771728 C104.002358,75.340079 91.9464166,86.4779502 66.6424816,78.6786942 L65.8716485,78.4365483 L67.0907515,74.6268517 C89.8846425,81.9208968 99.0260452,73.7026714 91.4159925,54.8763096 C89.3210345,49.6942966 89.6433125,40.8993486 91.7335247,29.288974 C92.4647551,25.2272527 93.3964651,20.9393815 94.4819426,16.5240234 C95.3476055,13.0027971 96.2678852,9.57278889 97.1943734,6.33814281 L97.5420029,5.13451153 C97.7507758,4.41761123 97.9510908,3.74056192 98.1413397,3.10683734 L98.6297394,1.50244969 L98.9388073,0.515726772 Z" id="Stroke-114" fill="#000"/><path d="M0.1850015,153.534088 L2.1419985,150.045512 L2.85620174,150.434727 L3.51128674,150.782909 C4.50308988,151.305335 5.6321651,151.880908 6.88714027,152.498006 L7.43266178,152.764985 C11.6537624,154.821142 16.3218862,156.878362 21.3004212,158.797989 C32.7483158,163.212076 44.0600582,166.224884 54.584272,167.202241 C59.3535856,167.645156 63.8735301,167.656119 68.1063644,167.201856 L68.9490919,167.10479 L69.4379081,171.07481 C64.6629697,171.662733 59.5745075,171.682884 54.2143935,171.185103 C43.2765951,170.169337 31.6251616,167.066055 19.8613669,162.530163 C14.7706849,160.567294 9.99959664,158.464698 5.68097489,156.361037 L4.04785364,155.55429 C3.35348222,155.206284 2.70158001,154.872883 2.09423579,154.556252 L0.962732129,153.958187 L0.1850015,153.534088 Z" id="Stroke-122" fill="#C86A5D"/></g><g id="Group-16" transform="translate(27.000000, 30.000000)" fill="#000"><path d="M70.0371,131.9951 C51.1661,131.9951 36.9381,123.3511 36.2701,122.9381 C34.8611,122.0681 34.4251,120.2191 35.2961,118.8091 C36.1651,117.4011 38.0141,116.9631 39.4241,117.8341 C39.7061,118.0061 56.4191,128.0481 76.5681,125.6031 C78.2011,125.4051 79.7071,126.5751 79.9081,128.2201 C80.1081,129.8641 78.9361,131.3601 77.2911,131.5591 C74.8141,131.8611 72.3881,131.9951 70.0371,131.9951" id="Fill-3" transform="translate(57.388937, 124.690582) rotate(15.000000) translate(-57.388937, -124.690582)"/><path d="M78.8252,103.1664 C74.7822,103.1664 69.7382,102.3754 63.4432,100.3614 L64.6612,96.5514 C76.3852,100.3024 85.0452,99.9964 89.0462,95.6874 C92.4492,92.0204 92.4282,85.3134 88.9872,76.8014 C86.6522,71.0264 87.2292,60.0734 90.7022,44.2454 C93.2432,32.6624 96.4772,22.5414 96.5102,22.4404 L100.3182,23.6624 C96.8112,34.5954 88.6062,65.1874 92.6952,75.3024 C97.8932,88.1604 95.1742,94.9644 91.9772,98.4084 C89.6972,100.8664 85.7182,103.1664 78.8252,103.1664" id="Fill-5"/><g id="Group-9" transform="translate(0.000000, 0.956000)"><path d="M62.1387,19.4316 C61.5377,19.4316 60.9257,19.3316 60.3267,19.1226 C54.4907,17.0866 37.6337,11.6746 29.8217,11.0966 C22.4657,10.5516 11.2427,14.1856 7.5387,15.6326 C4.7097,16.7366 1.5207,15.3416 0.4147,12.5146 C-0.6923,9.6866 0.7007,6.4986 3.5277,5.3896 C4.1637,5.1406 19.2597,-0.7164 30.6337,0.1266 C41.4887,0.9306 63.0387,8.4186 63.9507,8.7376 C66.8187,9.7386 68.3317,12.8746 67.3317,15.7426 C66.5397,18.0106 64.4127,19.4316 62.1387,19.4316" id="Fill-7"/></g><path d="M154.6772,39.1645 C153.5752,39.1645 152.4632,38.8265 151.5062,38.1245 C148.4472,35.8845 139.0022,29.8175 132.1372,28.6695 C124.8122,27.4455 107.9602,28.8295 102.0842,29.4645 C99.1372,29.7795 96.4882,27.6525 96.1692,24.7055 C95.8492,21.7575 97.9802,19.1085 100.9272,18.7895 C101.8492,18.6895 123.6282,16.3615 133.9072,18.0795 C144.7152,19.8855 157.3282,29.0775 157.8602,29.4685 C160.2492,31.2235 160.7642,34.5835 159.0092,36.9735 C157.9572,38.4055 156.3282,39.1645 154.6772,39.1645" id="Fill-10"/><path d="M51.6362,49.1289 C50.9112,49.1289 50.1852,48.8679 49.6092,48.3389 C49.5712,48.3049 44.6242,43.9129 37.4832,44.1789 C30.0942,44.4519 25.1892,48.0669 25.1402,48.1029 C23.8182,49.0929 21.9392,48.8329 20.9442,47.5169 C19.9472,46.1999 20.1962,44.3309 21.5082,43.3279 C21.7642,43.1319 27.8862,38.5299 37.2612,38.1829 C46.9102,37.8359 53.3942,43.6699 53.6652,43.9189 C54.8862,45.0389 54.9682,46.9369 53.8472,48.1569 C53.2562,48.8019 52.4472,49.1289 51.6362,49.1289" id="Fill-12"/><path d="M135.7539,58.2724 C135.0289,58.2724 134.3029,58.0114 133.7269,57.4824 C133.6889,57.4484 128.7419,53.0504 121.5999,53.3224 C114.2309,53.5944 109.3169,57.2014 109.2699,57.2374 C107.9529,58.2444 106.0699,57.9924 105.0639,56.6764 C104.0579,55.3604 104.3089,53.4774 105.6249,52.4714 C105.8809,52.2754 112.0039,47.6724 121.3789,47.3264 C131.0239,46.9814 137.5119,52.8134 137.7829,53.0624 C139.0039,54.1824 139.0859,56.0804 137.9649,57.3004 C137.3739,57.9454 136.5649,58.2724 135.7539,58.2724" id="Fill-14"/></g></g></g><g id="Hairstyle" transform="translate(1142.000000, 877.000000) scale(1 1)" blush:width="826" blush:height="747" blush:component="Hairstyle"><defs><polygon id="hairstylecurly-bun-path-1" points="0.328028164 0.405 215.919 0.405 215.919 152.988863 0.328028164 152.988863"/><polygon id="hairstylecurly-bun-path-3" points="0 0.70825307 250.5147 0.70825307 250.5147 222 0 222"/></defs><g id="Hairstyle/Curly Bun" stroke="none" stroke-width="1" fill="none" fill-rule="evenodd"><g id="Group-11" transform="translate(434.000000, 48.000000)"><g id="Group-3" transform="translate(49.000000, 0.595000)"><mask id="hairstylecurly-bun-mask-2" fill="#fff"><use xlink:href="#hairstylecurly-bun-path-1"/></mask><g id="Clip-2"/><path d="M177.9641,151.0493 C177.9641,151.0493 173.9001,141.6203 196.0491,140.5903 C218.1991,139.5603 226.9561,94.2313 195.0191,74.1413 C163.0821,54.0523 197.5951,32.9333 148.6591,7.6933 C99.7241,-17.5477 75.5141,30.8723 75.5141,30.8723 C75.5141,30.8723 24.0041,10.7833 5.9751,51.9923 C-12.0539,93.2003 18.8521,109.6843 18.8521,109.6843 C18.8521,109.6843 -1.7519,123.5923 14.7321,140.5903 C31.2151,157.5893 75.6971,138.6983 83.0751,147.8863 C90.4521,157.0743 177.9641,151.0493 177.9641,151.0493" id="Fill-1" fill="#752B00" mask="url(#hairstylecurly-bun-mask-2)"/></g><path d="M78.8482,161.0855 C78.8482,161.0855 94.4382,132.3665 131.5252,129.6835 C168.6132,127.0005 185.2512,140.1725 189.5522,161.0855 C193.8532,181.9985 78.8482,161.0855 78.8482,161.0855" id="Fill-4" fill="#FFF"/><g id="Group-8" transform="translate(0.000000, 148.595000)"><mask id="hairstylecurly-bun-mask-4" fill="#fff"><use xlink:href="#hairstylecurly-bun-path-3"/></mask><g id="Clip-7"/><path d="M22.3227,199.6632 C21.2927,195.1992 24.0400333,189.876533 30.5647,183.6952 C40.3517,174.4232 36.7457,131.6692 59.9257,123.9422 C83.1057,116.2162 121.7387,76.5532 139.7667,76.5532 C157.7957,76.5532 188.7027,93.0362 201.0647,92.0062 C213.4277,90.9762 229.9107,115.7012 230.9407,128.5782 C231.9707,141.4562 248.8557,164.4952 238.3527,222.0002 C238.3527,222.0002 250.5147,202.7542 250.5147,180.0892 C250.5147,157.4242 247.4247,152.2732 248.9697,119.8222 C250.5147,87.3702 246.9097,53.8882 223.2147,38.4352 C199.5197,22.9812 184.5817,-5.3488 148.0087,1.8622 C111.4367,9.0742 83.1057,0.3172 61.4707,23.4972 C45.5577,40.5472 21.8077,52.3432 16.6567,87.3702 C11.8577,120.0022 -14.6383,135.0912 11.0537,170.2102 C11.0537,170.2102 22.3227,188.3312 22.3227,199.6632 Z" id="Fill-6" fill="#752B00" mask="url(#hairstylecurly-bun-mask-4)"/></g><path d="M81.5017,158.7446 C81.5017,158.7446 88.3227,130.4856 133.3227,127.4856 C178.3227,124.4856 187.0857,143.8696 189.2047,159.6776 C189.2047,159.6776 170.7157,147.3106 147.0197,152.3986 C123.3227,157.4856 96.6807,154.0036 81.5017,158.7446" id="Fill-9" fill="#56ACF6"/></g></g></g><g id="Accesories" transform="translate(1586.000000, 1237.000000) scale(1 1)" fill="#000" blush:width="234" blush:height="78" blush:component="Accesories"><g id="Accesories/None" stroke="none" stroke-width="1" fill="none" fill-rule="evenodd" fill-opacity="0"/></g><g id="Facial Hair" transform="translate(1596.000000, 1238.000000) scale(1 1)" fill="#000" blush:width="212" blush:height="211" blush:component="Facial Hair"><g id="Facial Hair/None" stroke="none" stroke-width="1" fill="none" fill-rule="evenodd" fill-opacity="0"/></g></g></g><g id="Big-Lamp" transform="translate(749.000000, 1000.000000)"><mask id="masterscenealone-time-1-mask-18" fill="#fff"><use xlink:href="#masterscenealone-time-1-path-17"/></mask><g id="Clip-2"/><path d="M423.3501,268.34 L485.0201,207.31 L405.2201,126.651 L108.2601,422.7 C108.2601,422.7 76.8701,453 65.9601,483.36 C55.0501,513.72 55.0501,546.5 55.0501,546.5 L54.2701,2367.69 L498.1501,2367.93 C515.6301,2367.93 529.7901,2382.1 529.7901,2399.57 L529.7901,2400.24 C529.7901,2417.71 515.6301,2431.88 498.1501,2431.88 L31.6401,2431.88 C14.1701,2431.88 0.0001,2417.71 0.0001,2400.24 L0.0001,2399.57 C0.0001,2385.08 10.9601,2372.7 24.3101,2368.96 L24.0701,546.5 C24.0701,546.5 24.9301,501.79 39.3501,466.17 C51.6801,435.72 76.4401,409.95 88.7001,398.42 C88.8901,398.23 89.0801,398.06 89.2701,397.88 L383.4301,104.63 L346.3601,67.17 C340.4201,61.18 340.4701,51.5 346.4701,45.57 L388.0601,4.41 C394.0601,-1.52 403.7301,-1.47 409.6701,4.53 L538.3601,134.58 C542.8801,139.151 543.9301,145.861 541.5001,151.42 L609.5601,84.08 L808.1901,284.8 L621.9801,469.07 L423.3501,268.34 Z" id="Fill-1" fill="#0A4343" mask="url(#masterscenealone-time-1-mask-18)"/></g></g></svg>