<svg viewBox="367.99285714285725 387.69794721407607 3227.0142857142846 2886.5102639296183" xmlns="http://www.w3.org/2000/svg" xmlns:xlink="http://www.w3.org/1999/xlink" xmlns:blush="http://design.blush" overflow="visible" width="500px" height="447.24163086416314px"><defs><path d="M28.559,8.356 C1.23,24.313 -7.989,59.403 7.968,86.732 L7.968,86.732 L45.121,150.361 C61.077,177.69 96.167,186.907 123.497,170.951 L123.497,170.951 C150.824,154.994 160.043,119.904 144.086,92.576 L144.086,92.576 L106.934,28.947 C96.282,10.704 77.101,0.531 57.397,0.529 L57.397,0.529 C47.585,0.529 37.645,3.051 28.559,8.356 L28.559,8.356 Z" id="masterillustration-spotworking-from-home-path-1"/><path d="M28.559,8.356 C1.23,24.313 -7.989,59.403 7.968,86.732 L7.968,86.732 L45.121,150.361 C61.077,177.69 96.167,186.907 123.497,170.951 L123.497,170.951 C150.824,154.994 160.043,119.904 144.086,92.576 L144.086,92.576 L106.934,28.947 C96.282,10.704 77.101,0.531 57.397,0.529 L57.397,0.529 C47.585,0.529 37.645,3.051 28.559,8.356 L28.559,8.356 Z" id="masterillustration-spotworking-from-home-path-3"/><path d="M28.559,8.356 C1.23,24.313 -7.989,59.403 7.968,86.732 L7.968,86.732 L45.121,150.361 C61.077,177.69 96.167,186.907 123.497,170.951 L123.497,170.951 C150.824,154.994 160.043,119.904 144.086,92.576 L144.086,92.576 L106.934,28.947 C96.282,10.704 77.101,0.531 57.397,0.529 L57.397,0.529 C47.585,0.529 37.645,3.051 28.559,8.356 L28.559,8.356 Z" id="masterillustration-spotworking-from-home-path-5"/><path d="M0.447,75.826 L0.447,651.65 C0.447,693.357 34.258,727.168 75.965,727.168 L75.965,727.168 C117.672,727.168 151.482,693.357 151.482,651.65 L151.482,651.65 L151.482,75.826 C151.482,34.118 117.672,0.308 75.965,0.308 L75.965,0.308 C34.258,0.308 0.447,34.118 0.447,75.826 L0.447,75.826 Z" id="masterillustration-spotworking-from-home-path-9"/><path d="M0.447,75.826 L0.447,651.65 C0.447,693.357 34.258,727.168 75.965,727.168 L75.965,727.168 C117.672,727.168 151.482,693.357 151.482,651.65 L151.482,651.65 L151.482,75.826 C151.482,34.118 117.672,0.308 75.965,0.308 L75.965,0.308 C34.258,0.308 0.447,34.118 0.447,75.826 L0.447,75.826 Z" id="masterillustration-spotworking-from-home-path-11"/><path d="M0.447,75.826 L0.447,651.65 C0.447,693.357 34.258,727.168 75.965,727.168 L75.965,727.168 C117.672,727.168 151.482,693.357 151.482,651.65 L151.482,651.65 L151.482,75.826 C151.482,34.118 117.672,0.308 75.965,0.308 L75.965,0.308 C34.258,0.308 0.447,34.118 0.447,75.826 L0.447,75.826 Z" id="masterillustration-spotworking-from-home-path-13"/><path d="M90.942,8.652 L27.814,46.65 C0.701,62.97 -8.049,98.179 8.271,125.292 L8.271,125.292 L8.271,125.293 C24.59,152.406 59.8,161.155 86.913,144.836 L86.913,144.836 L150.041,106.838 C177.154,90.518 185.904,55.308 169.585,28.195 L169.585,28.195 C158.83,10.327 139.876,0.434 120.438,0.435999697 L120.438,0.435999697 C110.379,0.435999697 100.187,3.087 90.942,8.652" id="masterillustration-spotworking-from-home-path-17"/><path d="M90.942,8.652 L27.814,46.65 C0.701,62.97 -8.049,98.179 8.271,125.292 L8.271,125.292 L8.271,125.293 C24.59,152.406 59.8,161.155 86.913,144.836 L86.913,144.836 L150.041,106.838 C177.154,90.518 185.904,55.308 169.585,28.195 L169.585,28.195 C158.83,10.327 139.876,0.434 120.438,0.435999697 L120.438,0.435999697 C110.379,0.435999697 100.187,3.087 90.942,8.652 L90.942,8.652 Z" id="masterillustration-spotworking-from-home-path-19"/><path d="M90.942,8.652 L27.814,46.65 C0.701,62.97 -8.049,98.179 8.271,125.292 L8.271,125.292 L8.271,125.293 C24.59,152.406 59.8,161.155 86.913,144.836 L86.913,144.836 L150.041,106.838 C177.154,90.518 185.904,55.308 169.585,28.195 L169.585,28.195 C158.83,10.327 139.876,0.434 120.438,0.435999697 L120.438,0.435999697 C110.379,0.435999697 100.187,3.087 90.942,8.652" id="masterillustration-spotworking-from-home-path-21"/><path d="M90.942,8.652 L27.814,46.65 C0.701,62.97 -8.049,98.179 8.271,125.292 L8.271,125.292 L8.271,125.293 C24.59,152.406 59.8,161.155 86.913,144.836 L86.913,144.836 L150.041,106.838 C177.154,90.518 185.904,55.308 169.585,28.195 L169.585,28.195 C158.83,10.327 139.876,0.434 120.438,0.435999697 L120.438,0.435999697 C110.379,0.435999697 100.187,3.087 90.942,8.652 L90.942,8.652 Z" id="masterillustration-spotworking-from-home-path-23"/><path d="M90.942,8.652 L27.814,46.65 C0.701,62.97 -8.049,98.179 8.271,125.292 L8.271,125.292 L8.271,125.293 C24.59,152.406 59.8,161.155 86.913,144.836 L86.913,144.836 L150.041,106.838 C177.154,90.518 185.904,55.308 169.585,28.195 L169.585,28.195 C158.83,10.327 139.876,0.434 120.438,0.435999697 L120.438,0.435999697 C110.379,0.435999697 100.187,3.087 90.942,8.652" id="masterillustration-spotworking-from-home-path-25"/><path d="M90.942,8.652 L27.814,46.65 C0.701,62.97 -8.049,98.179 8.271,125.292 L8.271,125.292 L8.271,125.293 C24.59,152.406 59.8,161.155 86.913,144.836 L86.913,144.836 L150.041,106.838 C177.154,90.518 185.904,55.308 169.585,28.195 L169.585,28.195 C158.83,10.327 139.876,0.434 120.438,0.435999697 L120.438,0.435999697 C110.379,0.435999697 100.187,3.087 90.942,8.652 L90.942,8.652 Z" id="masterillustration-spotworking-from-home-path-27"/><polygon id="masterillustration-spotworking-from-home-path-7" points="0 0.980190514 38.2086238 0.980190514 38.2086238 15.5044 0 15.5044"/><polygon id="masterillustration-spotworking-from-home-path-15" points="0.59098705 0.529 37.6686084 0.529 37.6686084 40.5845 0.59098705 40.5845"/><polygon id="masterillustration-spotworking-from-home-path-29" points="0.7123 0.6973 336.0893 0.6973 336.0893 260 0.7123 260"/><polygon id="masterillustration-spotworking-from-home-path-31" points="0.738028712 0.439759466 779.924 0.439759466 779.924 696.4825 0.738028712 696.4825"/><polygon id="masterillustration-spotworking-from-home-path-33" points="0.2817 0.0902 77.6184974 0.0902 77.6184974 118 0.2817 118"/><polygon id="masterillustration-spotworking-from-home-path-35" points="0 280.06 382.454938 280.06 382.454938 519.503 0 519.503"/><polygon id="masterillustration-spotworking-from-home-path-37" points="0 0.0728 432.2757 0.0728 432.2757 402 0 402"/><polygon id="masterillustration-spotworking-from-home-path-39" points="0 0 252.22285 0 252.22285 206.497 0 206.497"/></defs><g id="Master/Illustration Spot/Working from Home" stroke="none" stroke-width="1" fill="none" fill-rule="evenodd"><g id="Blobs" transform="translate(1982.000000, 1300.000000) scale(-1, 1) translate(-1982.000000, -1300.000000) translate(859.000000, 0.000000) scale(1 1)" blush:width="2246" blush:height="2600" blush:component="Blobs"><g id="Blobs/2" stroke="none" stroke-width="1" fill="none" fill-rule="evenodd"><path d="M1920.04081,1038.29107 C2039.27487,1408.8006 1881.56288,1864.70287 1581.34007,2069.171 C1281.5923,2273.16473 839.333695,2226.19873 572.838447,2014.14013 C305.868163,1802.55594 214.661233,1426.82796 316.793993,1080.51302 C418.451717,733.723684 713.924166,416.821799 1059.27541,400.692062 C1405.10168,384.087921 1801.28178,668.255929 1920.04081,1038.29107 Z" id="Path" fill="#FFF5F3"/></g></g><ellipse id="Floor" fill="#EAF5FE" cx="1982" cy="3206" rx="1602" ry="58"/><g id="Desk" transform="translate(420.000000, 1801.000000)"><g id="Group" transform="translate(341.000000, 142.186800)"><polygon id="Fill-43" fill="#DDB0C8" points="5.88329385e-12 1240.159 210.424 0 273.104 13.431 483.719 1238.436 442.032 1238.436 241.454 30.837 38.812 1239.972"/><polygon id="Fill-48" fill="#EECCDC" points="53.9206 72.281 406.7116 72.281 406.7116 27.38 53.9206 27.38"/></g><g id="Group-2" transform="translate(1957.440900, 141.138000)"><polygon id="Fill-44" fill="#DDB0C8" points="-1.39266376e-12 1240.159 210.424 0 273.104 13.431 483.719 1238.436 442.033 1238.436 241.454 30.838 38.812 1239.973"/><polygon id="Fill-49" fill="#EECCDC" points="53.9192 73.2808 406.7112 73.2808 406.7112 28.3798 53.9192 28.3798"/></g><path d="M2765.95785,169.981 L19.0429116,169.981 C8.52571326,169.981 0,158.756 0,144.91 L0,25.071 C0,11.225 8.52571326,0 19.0429116,0 L2765.95785,0 C2776.47505,0 2785,11.225 2785,25.071 L2785,144.91 C2785,158.756 2776.47505,169.981 2765.95785,169.981" id="Fill-42" fill="#EECCDC"/></g><g id="Lamp" transform="translate(2532.000000, 706.000000)"><path d="M672.01,472.14 C672.01,472.14 661.89,486.3 649.24,498.45 C636.59,510.59 622.43,500.47 622.43,500.47 L535.9,408.38 L539.02,404.75 L465.66,337.15 L465.66,1054.84 L583.03,1054.84 C604.69,1054.84 622.25,1072.4 622.25,1094.06 L278.91,1094.06 C278.91,1083.23 283.3,1073.43 290.4,1066.33 C297.49,1059.23 307.3,1054.84 318.13,1054.84 L435.34,1054.84 L435.34,309.21 L181.47,75.24 L180.35,81.68 C180.35,81.68 210.78,114.28 237.95,141.99 C265.11,169.7 261.85,201.22 261.85,201.22 L133.08,176.22 L133.09,176.15 L-1.36424205e-12,148.59 C-1.36424205e-12,148.59 9.17,118.27 44.94,103.22 C80.71,88.16 121.37,69.86 121.37,69.86 L131.99,23.33 L149.32,26.91 L155.89,0 L165.67,1.85 L165.68,1.81 L175.52,3.91 L171.18,31.27 L188.54,34.67 L187.14,42.7 L557.12,383.69 L560.69,379.54 C560.69,379.54 647.73,440.26 661.89,450.38 C676.06,460.5 672.01,472.14 672.01,472.14" id="Fill-45" fill="#EECCDC"/><path d="M0.000200000001,148.5902 C0.000200000001,148.5902 53.7822,133.2562 134.9752,150.8572 C216.1672,168.4582 261.8502,201.2202 261.8502,201.2202 C261.8502,201.2202 208.2192,216.1522 129.2972,201.3892 C50.3752,186.6272 0.000200000001,148.5902 0.000200000001,148.5902" id="Fill-46" fill="#DDB0C8"/><path d="M107.2703,145.9081 C107.2703,145.9081 105.7753,165.8451 130.6953,172.8221 C155.6163,179.8001 161.0983,157.3711 161.0983,157.3711 C161.0983,157.3711 137.1173,150.4131 107.2703,145.9081" id="Fill-47" fill="#FCEBEC"/></g><g id="Chair" transform="translate(1373.000000, 2299.000000)"><path d="M125.5253,62.7326 C113.7853,130.2376 0.7863,858.1256 0.7863,858.1256 C0.7863,858.1256 3.3353,876.5076 21.7183,879.2116 C40.1023,881.9146 49.8343,865.1536 49.8343,865.1536 L209.1993,80.4196 L125.5253,62.7326 Z" id="Fill-52" fill="#DDB0C8"/><path d="M496.3634,79.9718 C508.7664,147.3588 655.2464,869.2528 655.2464,869.2528 C655.2464,869.2528 664.0124,885.6108 682.1924,881.7698 C700.3724,877.9298 703.6864,858.8328 703.6864,858.8328 L580.9774,67.5388 L496.3634,79.9718 Z" id="Fill-53" fill="#DDB0C8"/><path d="M682.1058,77.7736 C694.5088,145.1606 840.9888,867.0546 840.9888,867.0546 C840.9888,867.0546 849.7548,883.4126 867.9348,879.5726 C886.1148,875.7316 889.4288,856.6346 889.4288,856.6346 L766.7198,65.3406 L682.1058,77.7736 Z" id="Fill-54" fill="#DDB0C8"/><path d="M780.8434,93.5514 L102.9344,93.5514 C77.2564,93.5514 56.4404,72.7354 56.4404,47.0574 C56.4404,21.3804 77.2564,0.5644 102.9344,0.5644 L780.8434,0.5644 C806.5214,0.5644 827.3374,21.3804 827.3374,47.0574 C827.3374,72.7354 806.5214,93.5514 780.8434,93.5514" id="Fill-55" fill="#EECCDC"/></g><g id="Computer-Screen" transform="translate(1211.000000, 872.000000)"><path d="M1177.7652,775.534 L36.4342,775.534 C16.5612,775.534 0.4502,759.423 0.4502,739.55 L0.4502,35.985 C0.4502,16.111 16.5612,-1.13686838e-13 36.4342,-1.13686838e-13 L1177.7652,-1.13686838e-13 C1197.6392,-1.13686838e-13 1213.7492,16.111 1213.7492,35.985 L1213.7492,739.55 C1213.7492,759.423 1197.6392,775.534 1177.7652,775.534" id="Fill-56" fill="#DDB0C8"/><path d="M1162.8224,619.7313 L47.3324,619.7313 L47.3324,73.4143 C47.3324,58.7663 59.2074,46.8913 73.8554,46.8913 L1137.5494,46.8913 C1152.1974,46.8913 1164.0724,58.7663 1164.0724,73.4143 L1164.0724,618.4813 C1164.0724,619.1713 1163.5124,619.7313 1162.8224,619.7313" id="Fill-57" fill="#FCEBEC"/><path d="M1213.94,613.5941 L1213.94,749.5641 C1213.94,764.2141 1202.06,776.0841 1187.41,776.0841 L788.46,776.0841 L788.46,873.8041 C817.97,875.6841 841.32,900.2141 841.32,930.1941 L382.28,930.1941 C382.28,914.5841 388.6,900.4641 398.83,890.2341 C408.57,880.4941 421.84,874.2941 436.56,873.7341 L436.56,776.0841 L26.53,776.0841 C11.88,776.0841 1.13686838e-12,764.2141 1.13686838e-12,749.5641 L1.13686838e-12,612.3441 L1212.69,612.3441 C1213.38,612.3441 1213.94,612.9041 1213.94,613.5941" id="Fill-58" fill="#DDB0C8"/><path d="M638.8717,696.1624 C638.8717,712.4134 625.6967,725.5884 609.4457,725.5884 C593.1947,725.5884 580.0197,712.4134 580.0197,696.1624 C580.0197,679.9114 593.1947,666.7364 609.4457,666.7364 C625.6967,666.7364 638.8717,679.9114 638.8717,696.1624" id="Fill-59" fill="#FCEBEC"/><path d="M1091.6241,103.3002 C1091.6241,108.5182 1087.3941,112.7482 1082.1761,112.7482 C1076.9581,112.7482 1072.7281,108.5182 1072.7281,103.3002 C1072.7281,98.0822 1076.9581,93.8522 1082.1761,93.8522 C1087.3941,93.8522 1091.6241,98.0822 1091.6241,103.3002" id="Fill-60" fill="#FFF"/><path d="M133.691,104.1376 C133.691,109.3556 129.461,113.5856 124.243,113.5856 C119.025,113.5856 114.795,109.3556 114.795,104.1376 C114.795,98.9196 119.025,94.6896 124.243,94.6896 C129.461,94.6896 133.691,98.9196 133.691,104.1376" id="Fill-61" fill="#E93737"/><path d="M172.2213,103.7313 C172.2213,108.9493 167.9913,113.1793 162.7733,113.1793 C157.5553,113.1793 153.3253,108.9493 153.3253,103.7313 C153.3253,98.5133 157.5553,94.2833 162.7733,94.2833 C167.9913,94.2833 172.2213,98.5133 172.2213,103.7313" id="Fill-62" fill="#F9C818"/><path d="M211.9464,103.9784 C211.9464,109.1964 207.7164,113.4264 202.4984,113.4264 C197.2804,113.4264 193.0504,109.1964 193.0504,103.9784 C193.0504,98.7604 197.2804,94.5304 202.4984,94.5304 C207.7164,94.5304 211.9464,98.7604 211.9464,103.9784" id="Fill-63" fill="#1BC0D7"/><path d="M1068.1168,179.059 L123.2338,179.059 C110.3638,179.059 99.9308,168.626 99.9308,155.756 L99.9308,155.756 C99.9308,142.886 110.3638,132.453 123.2338,132.453 L1068.1168,132.453 C1080.9868,132.453 1091.4198,142.886 1091.4198,155.756 L1091.4198,155.756 C1091.4198,168.626 1080.9868,179.059 1068.1168,179.059" id="Fill-64" fill="#FFF"/><path d="M1067.4493,579.1142 L526.9913,579.1142 C515.8343,579.1142 506.7903,570.0702 506.7903,558.9132 L506.7903,227.4852 C506.7903,216.3282 515.8343,207.2832 526.9913,207.2832 L1067.4493,207.2832 C1078.6063,207.2832 1087.6503,216.3282 1087.6503,227.4852 L1087.6503,558.9132 C1087.6503,570.0702 1078.6063,579.1142 1067.4493,579.1142" id="Fill-67" fill="#FFF"/><path d="M689.932,414.8197 L587.318,414.8197 C576.161,414.8197 567.117,405.7757 567.117,394.6187 L567.117,276.4757 C567.117,265.3197 576.161,256.2747 587.318,256.2747 L689.932,256.2747 C701.089,256.2747 710.133,265.3197 710.133,276.4757 L710.133,394.6187 C710.133,405.7757 701.089,414.8197 689.932,414.8197" id="Fill-68" fill="#EECCDC"/><path d="M862.8697,414.5565 L760.2557,414.5565 C749.0987,414.5565 740.0547,405.5125 740.0547,394.3555 L740.0547,276.2125 C740.0547,265.0555 749.0987,256.0115 760.2557,256.0115 L862.8697,256.0115 C874.0267,256.0115 883.0707,265.0555 883.0707,276.2125 L883.0707,394.3555 C883.0707,405.5125 874.0267,414.5565 862.8697,414.5565" id="Fill-69" fill="#EECCDC"/><path d="M1034.3541,414.8207 L931.7401,414.8207 C920.5831,414.8207 911.5391,405.7767 911.5391,394.6197 L911.5391,276.4767 C911.5391,265.3207 920.5831,256.2757 931.7401,256.2757 L1034.3541,256.2757 C1045.5111,256.2757 1054.5551,265.3207 1054.5551,276.4767 L1054.5551,394.6197 C1054.5551,405.7767 1045.5111,414.8207 1034.3541,414.8207" id="Fill-70" fill="#EECCDC"/><path d="M679.9029,406.849 L577.2889,406.849 C566.1319,406.849 557.0879,397.805 557.0879,386.648 L557.0879,268.505 C557.0879,257.348 566.1319,248.304 577.2889,248.304 L679.9029,248.304 C691.0599,248.304 700.1039,257.348 700.1039,268.505 L700.1039,386.648 C700.1039,397.805 691.0599,406.849 679.9029,406.849" id="Fill-71" fill="#FCEBEC"/><path d="M405.715025,578 L150.284975,578 C122.512614,578 100,557.179034 100,531.493551 L100,259.506449 C100,233.820966 122.512614,213 150.284975,213 L405.715025,213 C433.487386,213 456,233.820966 456,259.506449 L456,531.493551 C456,557.179034 433.487386,578 405.715025,578" id="Fill-71-Copy" fill="#FFF"/><g id="Graph-2" transform="translate(147.000000, 265.000000)"><path d="M131,0 C203.349302,0 262,58.4268402 262,130.5 C262,202.57316 203.349302,261 131,261 C58.6506978,261 0,202.57316 0,130.5 C0,58.4268402 58.6506978,0 131,0 Z M131,59.8019417 C91.7406887,59.8019417 59.9147287,91.4545406 59.9147287,130.5 C59.9147287,169.545459 91.7406887,201.198058 131,201.198058 C170.259311,201.198058 202.085271,169.545459 202.085271,130.5 C202.085271,91.4545406 170.259311,59.8019417 131,59.8019417 Z" id="Combined-Shape-Copy-4" fill="#56ACF6"/><path d="M256.000078,91.3498349 L198.940206,109.000895 C192.645183,88.7451416 177.488856,72.386917 158.000368,64.45159 L180.530056,8.99984284 C216.477069,23.6657939 244.423992,53.9082858 256.000078,91.3498349 Z" id="Combined-Shape-Copy-5" fill="#E93737"/><path d="M79.0001492,178.908198 L35.4267629,219.999412 C21.2502803,204.683923 10.6580572,185.944242 4.9998693,165.143011 L62.4110859,148.999938 C65.4762328,160.347021 71.254524,170.567003 79.0001492,178.908198 Z" id="Combined-Shape-Copy-6" fill="#1BC0D7"/></g><path d="M700.141,278.8783 L557.125,278.8783 L557.125,263.8103 C557.125,255.2503 564.065,248.3103 572.625,248.3103 L684.641,248.3103 C693.201,248.3103 700.141,255.2503 700.141,263.8103 L700.141,278.8783 Z" id="Fill-72" fill="#E93737"/><path d="M852.8407,406.5853 L750.2267,406.5853 C739.0697,406.5853 730.0257,397.5413 730.0257,386.3843 L730.0257,268.2413 C730.0257,257.0853 739.0697,248.0403 750.2267,248.0403 L852.8407,248.0403 C863.9977,248.0403 873.0417,257.0853 873.0417,268.2413 L873.0417,386.3843 C873.0417,397.5413 863.9977,406.5853 852.8407,406.5853" id="Fill-73" fill="#FCEBEC"/><path d="M873.0787,278.6146 L730.0627,278.6146 L730.0627,263.5476 C730.0627,254.9866 737.0027,248.0466 745.5627,248.0466 L857.5787,248.0466 C866.1387,248.0466 873.0787,254.9866 873.0787,263.5476 L873.0787,278.6146 Z" id="Fill-74" fill="#1BC0D7"/><path d="M1024.3251,406.85 L921.7111,406.85 C910.5541,406.85 901.5101,397.806 901.5101,386.649 L901.5101,268.506 C901.5101,257.349 910.5541,248.305 921.7111,248.305 L1024.3251,248.305 C1035.4821,248.305 1044.5261,257.349 1044.5261,268.506 L1044.5261,386.649 C1044.5261,397.806 1035.4821,406.85 1024.3251,406.85" id="Fill-75" fill="#FCEBEC"/><path d="M1044.5631,278.8793 L901.5471,278.8793 L901.5471,263.8113 C901.5471,255.2513 908.4871,248.3113 917.0471,248.3113 L1029.0631,248.3113 C1037.6231,248.3113 1044.5631,255.2513 1044.5631,263.8113 L1044.5631,278.8793 Z" id="Fill-76" fill="#56ACF6"/><path d="M1049.34309,475.8832 L565.277106,475.8832 C561.982158,475.8832 559.3101,473.6192 559.3101,470.8252 C559.3101,468.0322 561.982158,465.7682 565.277106,465.7682 L1049.34309,465.7682 C1052.63804,465.7682 1055.3101,468.0322 1055.3101,470.8252 C1055.3101,473.6192 1052.63804,475.8832 1049.34309,475.8832" id="Fill-77" fill="#1BC0D7"/><path d="M1047.34308,521.9982 L563.27594,521.9982 C559.980984,521.9982 557.3101,519.7342 557.3101,516.9402 C557.3101,514.1472 559.980984,511.8832 563.27594,511.8832 L1047.34308,511.8832 C1050.63804,511.8832 1053.3101,514.1472 1053.3101,516.9402 C1053.3101,519.7342 1050.63804,521.9982 1047.34308,521.9982" id="Fill-78" fill="#1BC0D7"/></g><g id="Small Objects" transform="translate(420.000000, 872.000000) scale(1 1)" blush:width="498" blush:height="930" blush:component="Small Objects"><defs><polygon id="small-objectsplant-1-path-1" points="0 0.1068 43.9995 0.1068 43.9995 44.1068 0 44.1068"/><polygon id="small-objectsplant-1-path-3" points="-0.0005 0.107 43.9995 0.107 43.9995 44.1068 -0.0005 44.1068"/></defs><g id="Small Objects/Plant 1" stroke="none" stroke-width="1" fill="none" fill-rule="evenodd"><g id="Group-51" transform="translate(67.000000, 134.000000)"><path d="M233.5005,541.057 L229.4805,365.321 C227.3905,273.916 256.5445,208.051 281.3705,168.892 C308.3135,126.395 335.3615,105.854 336.4995,105 L339.5005,108.999 C339.2285,109.204 311.9215,129.972 285.4675,171.77 C261.0695,210.317 232.4195,275.166 234.4795,365.207 L238.4985,540.943 L233.5005,541.057 Z" id="Fill-1" fill="#0A4343"/><path d="M146.4995,609.0409 L143.4995,426.0409 C141.9585,331.9909 109.2905,243.0699 82.1575,185.0359 C52.7215,122.0759 23.2645,80.8689 22.9705,80.4599 L27.0285,77.5399 C27.3245,77.9519 57.0085,119.4619 86.6395,182.8159 C114.0005,241.3159 146.9415,330.9849 148.4995,425.9589 L151.4995,608.9589 L146.4995,609.0409 Z" id="Fill-3" fill="#0A4343"/><path d="M168.231,447.0045 C167.795,447.0045 167.361,446.9055 166.955,446.7035 C165.005,445.7315 162.58,444.5235 163.501,396.9515 C164.351,352.9735 158.326,279.8555 124.786,181.2625 C104.703,122.2255 83.981,81.5435 83.775,81.1395 L88.224,78.8595 C88.433,79.2665 109.292,120.2085 129.492,179.5695 C148.146,234.3885 170.056,316.6175 168.499,397.0485 C168.106,417.3745 168.386,428.7165 168.801,435.0345 C171.684,419.2645 175.377,381.4625 176.748,335.2635 C177.966,294.2065 178.133,217.0425 165.561,161.5525 L136.561,33.5525 L141.438,32.4475 L170.438,160.4475 C183.298,217.2115 182.996,295.9685 181.67,337.8615 C180.826,364.5835 179.133,390.9315 176.907,412.0505 C173.58,443.6015 171.124,445.5305 170.074,446.3545 C169.527,446.7845 168.879,447.0045 168.231,447.0045" id="Fill-5" fill="#0A4343"/><path d="M203.9272,480.4139 L202.7222,479.3039 C201.7902,478.4349 201.6222,478.2789 201.7072,466.8519 C201.7632,459.3829 201.9862,449.3899 202.3362,438.7109 C202.6532,429.0519 203.1372,416.7319 203.8722,402.3669 C204.7312,246.6109 192.6352,42.3369 192.5042,40.1489 L197.4942,39.8509 C197.6072,41.7279 206.5232,192.2909 208.5222,333.4849 C213.9062,269.6179 224.0472,187.3689 242.6342,133.1889 C262.6822,74.7539 285.1652,42.7279 309.4612,38.0009 C327.5952,34.4729 339.3942,47.7929 339.8872,48.3609 L336.1122,51.6389 C335.6962,51.1629 325.6262,39.9119 310.3502,42.9219 C294.9562,45.9559 271.5332,64.3609 247.3652,134.8109 C223.0812,205.5929 212.7882,327.1279 208.8592,404.6989 C208.7952,414.7129 208.6782,424.5129 208.4992,434.0469 C208.2392,447.8519 207.9422,459.3059 207.6362,467.1689 C207.1742,479.0379 207.1082,479.0649 205.4202,479.7809 L203.9272,480.4139 Z" id="Fill-7" fill="#0A4343"/><path d="M198.519,489.3143 L178.123,328.4733 C158.003,169.8023 114.132,63.0193 113.691,61.9593 L118.308,60.0403 C118.751,61.1063 162.88,168.5123 183.084,327.8443 L200.228,463.0443 L228.505,39.8333 L233.494,40.1663 L203.494,489.1663 L198.519,489.3143 Z" id="Fill-9" fill="#0A4343"/><g id="Group-13" transform="translate(0.000000, 61.893000)"><mask id="small-objectsplant-1-mask-2" fill="#fff"><use xlink:href="#small-objectsplant-1-path-1"/></mask><g id="Clip-12"/><path d="M43.9995,22.1068 C43.9995,34.2568 34.1495,44.1068 21.9995,44.1068 C9.8505,44.1068 -0.0005,34.2568 -0.0005,22.1068 C-0.0005,9.9568 9.8505,0.1068 21.9995,0.1068 C34.1495,0.1068 43.9995,9.9568 43.9995,22.1068" id="Fill-11" fill="#56ACF6" mask="url(#small-objectsplant-1-mask-2)"/></g><path d="M105.9995,81.9998 C105.9995,94.1498 96.1495,103.9998 83.9995,103.9998 C71.8505,103.9998 61.9995,94.1498 61.9995,81.9998 C61.9995,69.8498 71.8505,59.9998 83.9995,59.9998 C96.1495,59.9998 105.9995,69.8498 105.9995,81.9998" id="Fill-14" fill="#56ACF6"/><path d="M134.9995,61.9998 C134.9995,74.1498 125.1495,83.9998 112.9995,83.9998 C100.8505,83.9998 90.9995,74.1498 90.9995,61.9998 C90.9995,49.8498 100.8505,39.9998 112.9995,39.9998 C125.1495,39.9998 134.9995,49.8498 134.9995,61.9998" id="Fill-16" fill="#56ACF6"/><path d="M160.9995,30.9998 C160.9995,43.1498 151.1495,52.9998 138.9995,52.9998 C126.8505,52.9998 116.9995,43.1498 116.9995,30.9998 C116.9995,18.8498 126.8505,8.9998 138.9995,8.9998 C151.1495,8.9998 160.9995,18.8498 160.9995,30.9998" id="Fill-18" fill="#56ACF6"/><path d="M215.9995,43.9998 C215.9995,56.1498 206.1495,65.9998 193.9995,65.9998 C181.8505,65.9998 171.9995,56.1498 171.9995,43.9998 C171.9995,31.8498 181.8505,21.9998 193.9995,21.9998 C206.1495,21.9998 215.9995,31.8498 215.9995,43.9998" id="Fill-20" fill="#56ACF6"/><g id="Group-24" transform="translate(213.000000, 0.893000)"><mask id="small-objectsplant-1-mask-4" fill="#fff"><use xlink:href="#small-objectsplant-1-path-3"/></mask><g id="Clip-23"/><path d="M43.9995,22.1068 C43.9995,34.2568 34.1495,44.1068 21.9995,44.1068 C9.8505,44.1068 -0.0005,34.2568 -0.0005,22.1068 C-0.0005,9.9568 9.8505,0.1068 21.9995,0.1068 C34.1495,0.1068 43.9995,9.9568 43.9995,22.1068" id="Fill-22" fill="#56ACF6" mask="url(#small-objectsplant-1-mask-4)"/></g><path d="M363.9995,46.9998 C363.9995,59.1498 354.1495,68.9998 341.9995,68.9998 C329.8505,68.9998 319.9995,59.1498 319.9995,46.9998 C319.9995,34.8498 329.8505,24.9998 341.9995,24.9998 C354.1495,24.9998 363.9995,34.8498 363.9995,46.9998" id="Fill-25" fill="#56ACF6"/><path d="M358.9995,104.9999 C358.9995,117.1499 349.1495,126.9999 336.9995,126.9999 C324.8505,126.9999 314.9995,117.1499 314.9995,104.9999 C314.9995,92.8499 324.8505,82.9999 336.9995,82.9999 C349.1495,82.9999 358.9995,92.8499 358.9995,104.9999" id="Fill-27" fill="#56ACF6"/><path d="M45.9995,109.9999 C45.9995,122.1499 36.1495,131.9999 23.9995,131.9999 C11.8505,131.9999 1.9995,122.1499 1.9995,109.9999 C1.9995,97.8499 11.8505,87.9999 23.9995,87.9999 C36.1495,87.9999 45.9995,97.8499 45.9995,109.9999" id="Fill-29" fill="#56ACF6"/><path d="M67.9995,55.9998 C67.9995,68.1498 58.1495,77.9998 45.9995,77.9998 C33.8505,77.9998 23.9995,68.1498 23.9995,55.9998 C23.9995,43.8498 33.8505,33.9998 45.9995,33.9998 C58.1495,33.9998 67.9995,43.8498 67.9995,55.9998" id="Fill-31" fill="#56ACF6"/><path d="M140.9995,92.9998 C140.9995,105.1498 131.1495,114.9998 118.9995,114.9998 C106.8505,114.9998 96.9995,105.1498 96.9995,92.9998 C96.9995,80.8498 106.8505,70.9998 118.9995,70.9998 C131.1495,70.9998 140.9995,80.8498 140.9995,92.9998" id="Fill-33" fill="#56ACF6"/><path d="M327.9995,63.9998 C327.9995,76.1498 318.1495,85.9998 305.9995,85.9998 C293.8505,85.9998 283.9995,76.1498 283.9995,63.9998 C283.9995,51.8498 293.8505,41.9998 305.9995,41.9998 C318.1495,41.9998 327.9995,51.8498 327.9995,63.9998" id="Fill-35" fill="#56ACF6"/><path d="M319.9995,113.9999 C319.9995,126.1499 310.1495,135.9999 297.9995,135.9999 C285.8505,135.9999 275.9995,126.1499 275.9995,113.9999 C275.9995,101.8499 285.8505,91.9999 297.9995,91.9999 C310.1495,91.9999 319.9995,101.8499 319.9995,113.9999" id="Fill-37" fill="#56ACF6"/><path d="M103.9995,112.9999 C103.9995,125.1499 94.1495,134.9999 81.9995,134.9999 C69.8505,134.9999 59.9995,125.1499 59.9995,112.9999 C59.9995,100.8499 69.8505,90.9999 81.9995,90.9999 C94.1495,90.9999 103.9995,100.8499 103.9995,112.9999" id="Fill-39" fill="#56ACF6"/><path d="M174.9995,54.9998 C174.9995,67.1498 165.1495,76.9998 152.9995,76.9998 C140.8505,76.9998 130.9995,67.1498 130.9995,54.9998 C130.9995,42.8498 140.8505,32.9998 152.9995,32.9998 C165.1495,32.9998 174.9995,42.8498 174.9995,54.9998" id="Fill-41" fill="#56ACF6"/><path d="M266.9995,56.9998 C266.9995,69.1498 257.1495,78.9998 244.9995,78.9998 C232.8505,78.9998 222.9995,69.1498 222.9995,56.9998 C222.9995,44.8498 232.8505,34.9998 244.9995,34.9998 C257.1495,34.9998 266.9995,44.8498 266.9995,56.9998" id="Fill-43" fill="#56ACF6"/><path d="M328.9995,28.9998 C328.9995,41.1498 319.1495,50.9998 306.9995,50.9998 C294.8505,50.9998 284.9995,41.1498 284.9995,28.9998 C284.9995,16.8498 294.8505,6.9998 306.9995,6.9998 C319.1495,6.9998 328.9995,16.8498 328.9995,28.9998" id="Fill-45" fill="#56ACF6"/><path d="M350.9995,135.9999 C350.9995,148.1499 341.1495,157.9999 328.9995,157.9999 C316.8505,157.9999 306.9995,148.1499 306.9995,135.9999 C306.9995,123.8499 316.8505,113.9999 328.9995,113.9999 C341.1495,113.9999 350.9995,123.8499 350.9995,135.9999" id="Fill-47" fill="#56ACF6"/><path d="M103.9995,367.9998 L104.9995,536.9998 C104.9995,536.9998 24.9995,601.9998 30.9995,657.9998 C36.9995,713.9998 122.7185,795.8928 122.7185,795.8928 L261.4015,794.6318 C261.4015,794.6318 353.9995,712.9998 351.9995,660.9998 C349.9995,608.9998 279.9995,539.9998 279.9995,539.9998 L278.9995,369.9998 L103.9995,367.9998 Z" id="Fill-49" fill="#1BC0D7"/></g></g></g><g id="Pet" transform="translate(2179.000000, 2231.000000) scale(1 1)" blush:width="1558" blush:height="1091" blush:component="Pet"><g id="Pet/None" stroke="none" stroke-width="1" fill="none" fill-rule="evenodd" fill-opacity="0"/></g><g transform="translate(585.000000, 685.000000) scale(1 1)" blush:width="2330" blush:height="2500" id="Master/Character/Sitting On Chair" blush:component="Master/Character/Sitting On Chair"><defs><polygon id="mastercharactersitting-on-chair-path-1" points="0 280.06 382.454938 280.06 382.454938 519.503 0 519.503"/><polygon id="mastercharactersitting-on-chair-path-3" points="0.893394597 0.106 258.492632 0.106 258.492632 218.7317 0.893394597 218.7317"/></defs><g id="Master/Character/Sitting On Chair" stroke="none" stroke-width="1" fill="none" fill-rule="evenodd" blush:has-customizable-skin="true"><g id="Lower Body/Sitting On Chair" transform="translate(876.000000, 1399.000000) scale(1 1)" blush:width="1122" blush:height="1101" blush:component="Lower Body/Sitting On Chair"><defs><polygon id="lower-bodysitting-on-chair4-path-1" points="0 280.06 382.454938 280.06 382.454938 519.503 0 519.503"/></defs><g id="Lower Body/Sitting On Chair/4" stroke="none" stroke-width="1" fill="none" fill-rule="evenodd"><g id="Group-68"><g id="Group-3" transform="translate(895.533816, 840.477907) rotate(-4.000000) translate(-895.533816, -840.477907) translate(704.033816, 580.477907)"><polygon id="Fill-2" fill="#56ACF6" points="90.9983376 401.8251 156.753338 473.6121 264.736338 472.4061 258.101338 443.4491 129.606338 390.9661"/><path d="M76.0960053,0.9638 C74.7380053,10.5148 88.0788376,204.960923 88.0788376,204.960923 C88.0788376,204.960923 121.781585,210.464215 189.187079,221.4708 L229.667856,0.9638 L76.0960053,0.9638 Z" id="Fill-34" fill="#C26E5E" blush:skin="500"/><path d="M66.2981376,309.6757 C66.7611376,306.4187 85.3031376,199.4197 85.3031376,199.4197 C85.3031376,199.4197 82.6941376,194.3977 84.4551376,182.0237 C86.2151376,169.6497 95.0471376,158.9447 147.152138,171.0077 C199.258138,183.0707 201.588138,190.0457 200.847138,195.2567 C200.106138,200.4667 192.485138,212.0077 191.280138,220.4747 C190.075138,228.9417 182.962138,311.6517 182.962138,311.6517 L66.2981376,309.6757 Z" id="Fill-36" fill="#E4F9FF"/><path d="M65.3538376,305.3369 L49.7058376,390.8379 L120.300838,382.5059 L184.204838,414.0519 L281.627838,457.5109 L365.732838,454.6729 L363.718838,432.9509 C363.718838,432.9509 291.447838,388.4759 274.290838,376.3389 C257.132838,364.2009 251.280838,344.7449 251.280838,344.7449 L225.951838,302.0589 C225.951838,302.0589 198.906838,256.5119 175.147838,251.0879 C151.389838,245.6639 130.555838,248.4249 134.454838,258.3819 C138.352838,268.3399 148.495838,286.1359 148.495838,286.1359 L105.213838,274.2559 L78.2138376,303.1209 L71.1208376,309.8799 L73.4148376,315.1509" id="Fill-38" fill="#F4F0F1"/><path d="M71.2034376,318.3789 C71.2034376,318.3789 69.7594376,326.0259 93.7554376,335.5079 C117.751438,344.9899 143.249438,358.9689 147.939438,346.0709 C152.630438,333.1739 147.424438,319.5819 147.424438,319.5819 L168.776438,337.6109 C168.776438,337.6109 177.884438,356.3989 164.799438,373.0999 C151.715438,389.8009 121.926438,388.4199 121.926438,388.4199 L110.123438,376.0319 C110.123438,376.0319 72.2724376,351.0149 64.9164376,334.9759 C57.5594376,318.9369 71.2034376,318.3789 71.2034376,318.3789" id="Fill-40" fill="#F9C818"/><mask id="lower-bodysitting-on-chair4-mask-2" fill="#fff"><use xlink:href="#lower-bodysitting-on-chair4-path-1"/></mask><g id="Clip-43"/><path d="M64.9085376,286.331 C64.9085376,286.331 31.3285376,352.55 33.9245376,351.751 C36.5205376,350.952 55.0565376,318.708 54.8405376,331.528 C54.6225376,344.35 45.0835376,360.107 45.8275376,374.428 C45.8275376,374.428 56.5795376,409.639 64.4535376,410.759 C72.3285376,411.879 110.743538,404.674 110.743538,404.674 C110.743538,404.674 129.508538,383.549 163.529538,409.4 C197.551538,435.252 241.914538,462.266 241.914538,462.266 C241.914538,462.266 235.982538,466.574 235.461538,470.931 C234.940538,475.286 237.320538,481.436 237.320538,481.436 L99.2415376,451.568 L27.7065376,395.481 L18.3445376,395.813 C18.3445376,395.813 9.35653757,400.523 7.50253757,415.896 C5.64853757,431.269 6.07053757,435.321 3.41853757,439.935 C0.765537573,444.548 -5.84346243,453.588 11.9545376,459.446 C29.7515376,465.305 163.510538,507.286 223.092538,516.427 C282.674538,525.566 345.363538,512.858 363.147538,497.756 C380.932538,482.653 384.418538,469.841 381.569538,457.126 C378.720538,444.411 372.410538,428.883 355.019538,430.531 C337.628538,432.181 327.611538,434.347 300.046538,423.377 C272.479538,412.407 261.270538,412.675 261.814538,419.137 C262.357538,425.598 282.696538,433.145 282.696538,433.145 C282.696538,433.145 310.131538,441.304 309.741538,444.041 C309.351538,446.778 308.217538,449.143 283.076538,445.435 C257.935538,441.726 228.038538,434.084 189.995538,407.129 C151.951538,380.174 140.828538,369.877 114.528538,370.977 C88.2285376,372.078 64.0025376,382.431 58.7035376,363.521 C53.4045376,344.612 73.1145376,321.413 73.4145376,315.151 C73.7135376,308.89 65.3535376,305.337 65.3535376,305.337 L65.4135376,280.06" id="Fill-42" fill="#15023F" mask="url(#lower-bodysitting-on-chair4-mask-2)"/><path d="M69.5901376,270.9257 C69.5901376,270.9257 68.5511376,272.1127 65.4131376,280.0607 C62.2761376,288.0077 59.6341376,312.9947 68.4221376,312.7857 C77.2111376,312.5757 85.2481376,295.8367 93.6731376,286.6347 C102.099138,277.4327 112.061138,275.3827 120.086138,280.5387 C128.111138,285.6947 160.487138,285.9557 160.487138,285.9557 C160.487138,285.9557 152.876138,270.6797 124.261138,268.4007 C124.261138,268.4007 104.491138,260.2807 91.3821376,277.8477 C78.2731376,295.4127 69.7971376,313.1857 70.0111376,297.6547 C70.1951376,284.2817 74.9591376,276.4167 74.3971376,271.6527 C73.8341376,266.8867 69.5901376,270.9257 69.5901376,270.9257" id="Fill-45" fill="#451989" mask="url(#lower-bodysitting-on-chair4-mask-2)"/><path d="M282.480838,380.5556 C282.480838,380.5556 267.059838,381.7456 223.004838,374.4696 C178.952838,367.1836 190.188838,347.7626 172.480838,341.1726 C154.770838,334.5936 152.876838,333.6376 144.174838,316.1276 C135.484838,298.6186 109.480838,312.2126 97.8038376,308.5216 C86.1198376,304.8196 123.980838,274.6106 123.980838,274.6106 C123.980838,274.6106 143.584838,270.7836 160.486838,285.9536 C165.242838,290.2266 174.417838,304.9756 177.261838,308.4806 C180.096838,311.9856 198.271838,320.0546 213.401838,342.0036 C228.529838,363.9626 252.276838,359.7046 256.826838,361.3016 C261.365838,362.9076 225.290838,304.5756 225.290838,304.5756 L225.751838,299.0556 C225.751838,299.0556 248.139838,337.5116 259.207838,354.7216 C270.283838,371.9326 280.058838,376.7066 281.812838,377.7946 C283.555838,378.8906 282.480838,380.5556 282.480838,380.5556" id="Fill-47" fill="#E263AB" mask="url(#lower-bodysitting-on-chair4-mask-2)"/><path d="M47.9388376,319.0849 C47.9388376,319.0849 14.8268376,382.1459 15.3848376,397.1789 C15.9428376,412.2129 48.6158376,404.8479 60.0978376,434.4289 C71.5808376,464.0099 90.8508376,477.9679 175.142838,498.8099 C259.433838,519.6499 333.662838,492.6929 334.367838,487.7349 C335.072838,482.7769 335.184838,473.0979 335.184838,473.0979 C335.184838,473.0979 210.898838,484.5049 162.362838,446.4079 C113.826838,408.3119 112.816838,397.6299 93.3428376,401.1829 C73.8688376,404.7359 63.0638376,397.7199 49.7138376,378.9599 C49.7138376,378.9599 48.8828376,369.9889 55.8918376,347.3809 C62.9018376,324.7719 60.4598376,291.6389 47.9388376,319.0849" id="Fill-49" fill="#FFF" mask="url(#lower-bodysitting-on-chair4-mask-2)"/><path d="M125.258138,271.3183 C125.258138,271.3183 115.626138,259.2483 133.734138,248.2053 C151.841138,237.1623 182.016138,248.4253 190.580138,258.8843 C190.580138,258.8843 173.504138,248.9983 151.350138,249.7383 C129.196138,250.4783 133.921138,257.1483 142.943138,273.5093 L123.237138,269.5723" id="Fill-51" fill="#451989" mask="url(#lower-bodysitting-on-chair4-mask-2)"/><path d="M153.778638,286.0683 C155.877638,289.9953 153.476638,295.3693 148.418638,298.0733 C143.359638,300.7783 137.556638,299.7873 135.458638,295.8613 C133.359638,291.9353 135.759638,286.5603 140.818638,283.8563 C145.877638,281.1523 151.679638,282.1423 153.778638,286.0683" id="Fill-53" fill="#1F003C" mask="url(#lower-bodysitting-on-chair4-mask-2)"/><path d="M138.640938,292.0087 C138.640938,292.0087 140.350938,284.0397 156.223938,279.8147 C172.095938,275.5887 201.986938,269.0347 216.679938,282.2187 C231.372938,295.4027 229.600938,300.7687 229.600938,300.7687 C229.600938,300.7687 218.723938,293.1707 210.148938,289.6457 C201.573938,286.1207 189.750938,284.1517 177.729938,285.6117 C165.707938,287.0707 153.607938,290.1037 149.674938,291.4167 C145.742938,292.7307 141.651938,300.2167 138.640938,292.0087" id="Fill-55" fill="#E8D9F3" mask="url(#lower-bodysitting-on-chair4-mask-2)"/><path d="M173.357738,304.8457 C175.456738,308.7727 173.056738,314.1467 167.997738,316.8507 C162.938738,319.5557 157.135738,318.5647 155.038738,314.6387 C152.939738,310.7127 155.338738,305.3377 160.397738,302.6337 C165.457738,299.9297 171.258738,300.9197 173.357738,304.8457" id="Fill-57" fill="#1F003C" mask="url(#lower-bodysitting-on-chair4-mask-2)"/><path d="M158.221038,310.7861 C158.221038,310.7861 159.908038,302.8141 175.197038,298.5061 C190.486038,294.1971 219.269038,287.4861 233.328038,300.5791 C247.388038,313.6731 245.655038,319.0451 245.655038,319.0451 C245.655038,319.0451 235.235038,311.5121 227.006038,308.0361 C218.779038,304.5601 207.419038,302.6571 195.850038,304.1811 C184.280038,305.7051 172.625038,308.8011 168.835038,310.1351 C165.046038,311.4691 161.072038,318.9721 158.221038,310.7861" id="Fill-59" fill="#E8D9F3" mask="url(#lower-bodysitting-on-chair4-mask-2)"/><path d="M195.223938,322.2109 C197.322938,326.1369 194.922938,331.5109 189.863938,334.2159 C184.804938,336.9199 179.002938,335.9289 176.904938,332.0029 C174.805938,328.0769 177.204938,322.7019 182.263938,319.9979 C187.323938,317.2939 193.124938,318.2839 195.223938,322.2109" id="Fill-61" fill="#1F003C" mask="url(#lower-bodysitting-on-chair4-mask-2)"/><path d="M180.039438,328.4824 C180.039438,328.4824 181.499438,321.3134 193.727438,317.2284 C205.954438,313.1444 236.445438,308.7414 247.441438,320.2704 C258.436438,331.7994 250.674438,338.6684 250.674438,338.6684 C250.674438,338.6684 241.307438,328.0074 234.810438,325.0134 C228.314438,322.0184 219.304438,320.4784 210.076438,322.0124 C200.849438,323.5474 191.529438,326.4934 188.495438,327.7434 C185.460438,328.9944 182.188438,335.7764 180.039438,328.4824" id="Fill-63" fill="#E8D9F3" mask="url(#lower-bodysitting-on-chair4-mask-2)"/></g><g id="Group-67" transform="translate(0.000000, 0.060000)"><g id="Group-44" transform="translate(651.000000, 860.000000)"/><path d="M3.1806,0.942 C3.1806,0.942 -3,188.499 30.4226,177.385 C30.4226,177.385 212.4216,195.445 256.8796,202.391 C279.246794,205.886094 322.024268,232.656066 455.898754,254.990308 C589.773239,277.324549 717.4166,300.348138 717.4166,309.322 C717.4166,327.384 746.5776,459.14 753.5236,620.3 C753.5236,620.3 795.2036,670.314 920.2406,625.857 C920.2406,625.857 929.3036,310.758 866.7846,188.499 C747.405502,30.118 369.004392,0.942 369.004392,0.942 L3.1806,0.942 Z" id="Fill-65" fill="#E93737"/><g id="Group-2" transform="translate(320.000000, 556.940000)"><path d="M43.3374466,13.506658 C43.3374466,23.152658 55.2845449,269.8996 55.2845449,269.8996 L152.715994,278.852034 L206.575491,-2.84217094e-14 L43.3374466,13.506658 Z" id="Fill-4" fill="#C26E5E" blush:skin="500"/><g id="Group" transform="translate(0.000000, 210.544663)"><polygon id="Fill-1" fill="#56ACF6" points="74.7025449 113.497237 140.457545 185.285237 248.440545 184.079237 241.805545 155.122237 113.310545 102.639237"/><polygon id="Fill-3" fill="#56ACF6" points="74.9691449 226.772637 140.724145 298.560637 248.707145 297.354637 242.072145 268.397637 113.577145 215.914637"/><path d="M46.1420449,149.748137 C46.1420449,146.459137 49.4310449,37.9151369 49.4310449,37.9151369 C49.4310449,37.9151369 46.1420449,33.3101369 46.1420449,20.8111369 C46.1420449,8.31113686 53.3780449,-3.52886314 106.663045,1.07513686 C159.949045,5.68113686 163.238045,12.2591369 163.238045,17.5211369 C163.238045,22.7841369 157.318045,35.2831369 157.318045,43.8351369 C157.318045,52.3881369 161.922045,135.275137 161.922045,135.275137 L46.1420449,149.748137 Z" id="Fill-6" fill="#E4F9FF"/><path d="M44.5961449,145.585137 L41.1451449,232.438137 L109.864145,214.247137 L177.572145,236.481137 L280.145145,265.787137 L363.012145,251.134137 L357.959145,229.911137 C357.959145,229.911137 280.145145,196.058137 261.450145,186.457137 C242.754145,176.856137 234.220145,158.418137 234.220145,158.418137 L203.132145,119.725137 C203.132145,119.725137 169.943145,78.4391369 145.658145,76.4161369 C121.372145,74.3921369 101.134145,80.0591369 106.396145,89.3681369 C111.658145,98.6771369 124.205145,114.867137 124.205145,114.867137 L79.6831449,109.200137 L57.0161449,141.581137 L50.9451449,149.272137 L53.9581449,154.167137" id="Fill-8" fill="#F4F0F1"/><path d="M52.2250449,157.673937 C52.2250449,157.673937 51.8710449,165.447937 76.9630449,171.455937 C102.056045,177.464937 129.269045,187.712937 132.096045,174.282937 C134.923045,160.854937 127.855045,148.130937 127.855045,148.130937 L151.534045,162.974937 C151.534045,162.974937 163.196045,180.291937 152.594045,198.668937 C141.992045,217.046937 112.305045,219.873937 112.305045,219.873937 L98.8750449,209.271937 C98.8750449,209.271937 57.8790449,189.833937 48.3370449,174.989937 C38.7950449,160.147937 52.2250449,157.673937 52.2250449,157.673937" id="Fill-10" fill="#F9C818"/><path d="M41.4789449,126.831237 C41.4789449,126.831237 17.5589449,197.119237 20.0169449,195.963237 C22.4749449,194.807237 36.2859449,160.272237 37.8749449,172.996237 C39.4659449,185.720237 32.2419449,202.664237 34.9949449,216.737237 C34.9949449,216.737237 50.5969449,250.083237 58.5509449,250.083237 C66.5049449,250.083237 103.522945,237.540237 103.522945,237.540237 C103.522945,237.540237 119.124945,213.983237 156.448945,234.787237 C193.771945,255.590237 241.496945,276.087237 241.496945,276.087237 C241.496945,276.087237 236.230945,281.187237 236.328945,285.573237 C236.425945,289.960237 239.647945,295.714237 239.647945,295.714237 L98.7389449,285.587237 L20.0179449,240.134237 L10.7959449,241.780237 C10.7959449,241.780237 2.56194485,247.709237 2.89094485,263.189237 C3.21994485,278.670237 4.20794485,282.623237 2.23194485,287.563237 C0.25594485,292.504237 -5.01405515,302.386237 13.4309449,305.679237 C31.8749449,308.973237 170.212945,331.699237 230.488945,332.358237 C290.763945,333.018237 351.039945,311.607237 366.519945,294.151237 C381.999945,276.694237 383.647945,263.519237 379.036945,251.332237 C374.424945,239.145237 365.991945,224.660237 349.005945,228.741237 C332.019945,232.823237 322.408945,236.378237 293.572945,229.399237 C264.736945,222.421237 253.675945,224.265237 255.123945,230.585237 C256.572945,236.905237 277.771945,241.514237 277.771945,241.514237 C277.771945,241.514237 306.081945,245.727237 306.081945,248.492237 C306.081945,251.257237 305.290945,253.759237 279.877945,253.627237 C254.465945,253.495237 223.790945,250.141237 182.330945,228.811237 C140.869945,207.481237 128.407945,198.854237 102.524945,203.647237 C76.6419449,208.440237 54.1149449,222.101237 46.2069449,204.127237 C38.2969449,186.152237 54.5429449,160.409237 53.9579449,154.167237 C53.3739449,147.926237 44.5959449,145.585237 44.5959449,145.585237 L41.0959449,120.553237" id="Fill-12" fill="#15023F"/><path d="M43.9447449,110.920037 C43.9447449,110.920037 43.0837449,112.243037 41.0957449,120.553037 C39.1087449,128.862037 40.0117449,153.973037 48.6837449,152.527037 C57.3547449,151.083037 62.9557449,133.379037 70.0007449,123.082037 C77.0457449,112.785037 86.6207449,109.353037 95.2917449,113.327037 C103.962745,117.301037 136.052745,113.001037 136.052745,113.001037 C136.052745,113.001037 126.366745,98.9480369 97.7157449,100.722037 C97.7157449,100.722037 76.9997449,95.4680369 66.4947449,114.704037 C55.9887449,133.941037 50.1007449,152.731037 48.1257449,137.325037 C46.4247449,124.059037 50.0337449,115.602037 48.8057449,110.963037 C47.5787449,106.324037 43.9447449,110.920037 43.9447449,110.920037" id="Fill-14" fill="#451989"/><path d="M270.152745,189.478637 C270.152745,189.478637 255.051745,192.829637 210.412745,191.829637 C165.772745,190.819637 174.162745,170.008637 155.702745,165.978637 C137.242745,161.958637 135.232745,161.279637 124.152745,145.168637 C113.082745,129.058637 89.2527449,146.178637 77.1727449,144.168637 C65.0827449,142.148637 98.3127449,106.909637 98.3127449,106.909637 C98.3127449,106.909637 117.182745,100.359637 136.051745,112.999637 C141.362745,116.558637 152.522745,129.869637 155.832745,132.938637 C159.132745,136.008637 178.261745,141.438637 196.332745,161.039637 C214.402745,180.648637 237.312745,173.088637 242.042745,174.029637 C246.761745,174.978637 202.832745,122.308637 202.832745,122.308637 L202.511745,116.779637 C202.511745,116.779637 230.091745,151.699637 243.472745,167.178637 C256.862745,182.659637 267.212745,186.008637 269.102745,186.838637 C270.982745,187.678637 270.152745,189.478637 270.152745,189.478637" id="Fill-16" fill="#E263AB"/><path d="M29.2904449,161.648537 C29.2904449,161.648537 5.38944485,228.743537 8.05944485,243.548537 C10.7284449,258.354537 42.0384449,246.461537 57.5714449,274.130537 C73.1054449,301.799537 94.1494449,312.905537 180.536445,321.669537 C266.922445,330.432537 336.615445,293.291537 336.615445,288.283537 C336.615445,283.275537 335.363445,273.676537 335.363445,273.676537 C335.363445,273.676537 213.922445,302.472537 160.504445,271.589537 C107.087445,240.708537 104.583445,230.275537 85.8044449,236.535537 C67.0234449,242.794537 55.3394449,237.370537 39.4804449,220.676537 C39.4804449,220.676537 37.3944449,211.913537 41.1494449,188.543537 C44.9054449,165.172537 37.8224449,132.712537 29.2904449,161.648537" id="Fill-18" fill="#FFF"/><path d="M99.1137449,103.470837 C99.1137449,103.470837 87.8777449,92.8768369 104.249745,79.3938369 C120.621745,65.9108369 152.081745,72.8128369 162.033745,81.9618369 C162.033745,81.9618369 143.734745,74.5778369 121.905745,78.4308369 C100.076745,82.2838369 105.694745,88.2218369 116.929745,103.149837 L96.8667449,102.025837" id="Fill-20" fill="#451989"/><path d="M129.426245,114.057737 C132.057245,117.648737 130.438245,123.307737 125.810245,126.697737 C121.183245,130.086737 115.299245,129.923737 112.668245,126.331737 C110.037245,122.741737 111.656245,117.081737 116.284245,113.692737 C120.912245,110.302737 126.796245,110.465737 129.426245,114.057737" id="Fill-22" fill="#1F003C"/><path d="M115.276745,122.070437 C115.276745,122.070437 115.846745,113.939437 130.965745,107.520437 C146.086745,101.102437 174.755745,90.4044369 191.159745,101.387437 C207.561745,112.371437 206.563745,117.933437 206.563745,117.933437 C206.563745,117.933437 194.724745,111.942437 185.738745,109.660437 C176.753745,107.378437 164.771745,107.092437 153.075745,110.231437 C141.379745,113.369437 129.825745,118.076437 126.116745,119.930437 C122.408745,121.784437 119.413745,129.772437 115.276745,122.070437" id="Fill-24" fill="#E8D9F3"/><path d="M151.455545,129.890737 C154.085545,133.481737 152.466545,139.140737 147.839545,142.530737 C143.211545,145.919737 137.327545,145.756737 134.696545,142.164737 C132.066545,138.574737 133.684545,132.914737 138.312545,129.525737 C142.940545,126.135737 148.824545,126.298737 151.455545,129.890737" id="Fill-26" fill="#1F003C"/><path d="M137.305145,137.903437 C137.305145,137.903437 137.854145,129.772437 152.383145,123.354437 C166.912145,116.935437 194.464145,106.237437 210.227145,117.220437 C225.991145,128.204437 225.031145,133.766437 225.031145,133.766437 C225.031145,133.766437 213.654145,127.775437 205.019145,125.493437 C196.383145,123.211437 184.869145,122.925437 173.629145,126.064437 C162.389145,129.202437 151.286145,133.909437 147.723145,135.763437 C144.159145,137.617437 141.281145,145.605437 137.305145,137.903437" id="Fill-28" fill="#E8D9F3"/><path d="M175.549245,144.002137 C178.179245,147.594137 176.560245,153.253137 171.933245,156.643137 C167.305245,160.032137 161.421245,159.868137 158.790245,156.277137 C156.160245,152.687137 157.778245,147.027137 162.406245,143.638137 C167.034245,140.248137 172.918245,140.411137 175.549245,144.002137" id="Fill-30" fill="#1F003C"/><path d="M161.398845,152.349737 C161.398845,152.349737 161.834845,145.046737 173.364845,139.281737 C184.894845,133.515737 214.462845,124.862737 226.972845,134.728737 C239.481845,144.593737 232.763845,152.487737 232.763845,152.487737 C232.763845,152.487737 221.988845,143.252737 215.135845,141.203737 C208.282845,139.153737 199.144845,138.896737 190.224845,141.715737 C181.305845,144.534737 172.494845,148.761737 169.666845,150.427737 C166.837845,152.093737 164.553845,159.268737 161.398845,152.349737" id="Fill-32" fill="#E8D9F3"/></g></g><path d="M99.0982643,254.988308 C232.97275,277.322549 360.616111,300.346138 360.616111,309.32 C360.616111,327.382 349.777111,459.138 356.723111,620.298 C356.723111,620.298 398.403111,670.312 523.440111,625.855 C523.440111,625.855 572.503111,310.756 509.984111,188.497 C390.605013,30.116 12.2039025,0.94 12.2039025,0.94 C-19.1161799,155.416044 9.84860739,240.098814 99.0982643,254.988308 Z" id="Fill-65-Copy" fill="#E93737"/></g></g><path d="M403.874884,92.6580824 C488.951099,124.440505 532.921132,183.135188 535.436003,268.36041 L535.499522,270.951113 L530.500478,271.048887 C528.863603,187.357546 487.024505,129.899091 404.634205,98.2918018 L402.125116,97.3419176 L403.874884,92.6580824 Z" id="Path-9" fill="#000" fill-rule="nonzero"/></g></g><g id="Upper Body" transform="translate(333.000000, 447.000000) scale(1 1)" blush:width="1578" blush:height="1152" blush:component="Upper Body"><defs><polygon id="upper-bodywith-laptop-path-1" points="0.1808 0.1553 298.703924 0.1553 298.703924 343 0.1808 343"/><polygon id="upper-bodywith-laptop-path-3" points="0.550418291 0.388 141.311628 0.388 141.311628 92.088834 0.550418291 92.088834"/></defs><g id="Upper Body/With Laptop" stroke="none" stroke-width="1" fill="none" fill-rule="evenodd"><path d="M724.954254,220 C724.954254,220 721.26343,301.153386 673.924004,329.799638 C630.972611,355.790794 721.968632,506.610475 819.857852,497.613536 C873.442212,492.688212 886,346.158072 886,346.158072 C886,346.158072 842.733964,337.796917 858.715877,271.819367 L724.954254,220 Z" id="Neck" fill="#C26E5E" blush:skin="500"/><path d="M803.337113,302.515641 C739.876612,294.840687 694.077698,253.11575 687.664652,183.898064 C669.216286,186.83496 664.86504,138.764927 670.003065,123.322958 C675.146083,107.858975 691.933027,116.900812 691.933027,116.900812 C692.862251,114.457234 693.652358,111.898916 694.303348,109.225857 C722.02532,-4.48555283 799.669805,0.0243586862 799.669805,0.0243586862 C942.344355,7.45715716 908.914243,153.120195 900.762895,191.763142 C892.610548,230.410091 864.683894,309.927426 803.337113,302.515641 Z" id="Head" fill="#C26E5E" blush:skin="500"/><g id="Group-25" transform="translate(266.000000, 320.000000)"><g id="Group-19" transform="translate(0.000000, 0.612000)"><path d="M105.050047,289.936251 C33.5168788,376.727653 8.92577071,446.699768 31.2767231,499.852598 C64.8031518,579.581843 146.951413,496.522302 192.490195,395.604271 C222.849383,328.325583 260.283957,276.925705 304.793918,241.404634 L105.050047,289.936251 Z" id="Path" fill="#C26E5E" transform="translate(164.044509, 386.561708) rotate(-10.000000) translate(-164.044509, -386.561708)" blush:skin="500"/><g id="Group-3" transform="translate(695.000000, 361.000000)"><mask id="upper-bodywith-laptop-mask-2" fill="#fff"><use xlink:href="#upper-bodywith-laptop-path-1"/></mask><g id="Clip-2"/></g><path d="M280.8551,41.1066 C363.7551,15.4706 389.3011,14.0266 389.3011,14.0266 L476.8081,32.8846 C476.8081,32.8846 524.7691,95.9186 528.8791,152.1006 C528.8791,152.1006 530.2491,78.1046 561.7671,27.4036 C561.7671,27.4036 700.4791,26.1286 752.7731,80.7306 C835.3711,166.9736 833.813167,318.3006 833.813167,318.3006 L697.5221,332.3166 L752.7731,255.388 C752.7731,255.388 756.263179,568.804637 748.041179,649.652637 C644,764.422821 270,675.591107 270,675.591107 C270,675.591107 278.1151,416.25183 279.4851,345.3136 C280.8551,274.37537 254.6201,283.9566 218.4531,371.8906 C188.8861,443.7816 94.8851,294.7296 94.8851,294.7296 C94.8851,294.7296 152.5811,80.7726 280.8551,41.1066 Z" id="Fill-4" fill="#1BC0D7"/><path d="M704.0424,431.7121 C704.0424,431.7121 771.3394,407.5801 839.7714,421.8301 C839.7714,421.8301 838.8854,399.4921 839.5874,369.9961 C840.1634,345.7711 853.4304,308.2791 805.5564,312.3171 C749.8404,317.0161 725.9594,317.5081 701.7344,328.4671 C701.7344,328.4671 695.9674,408.6411 704.0424,431.7121" id="Fill-6" fill="#FCEBEC"/><path d="M63.9394,341.7921 L93.2847063,249.4471 C93.2847063,249.4471 201.904517,226.7581 244.9394,320.6421 L212.685338,404.2371 C212.685338,404.2371 152.370466,315.2971 63.9394,341.7921" id="Fill-10" fill="#237978"/><g id="Group-14" transform="translate(338.000000, 0.000000)"><mask id="upper-bodywith-laptop-mask-4" fill="#fff"><use xlink:href="#upper-bodywith-laptop-path-3"/></mask><g id="Clip-13"/><path d="M52.6986,0.4875 C52.6986,0.4875 -2.7084,19.2415 0.7016,24.3555 C4.1106,29.4695 102.4766,94.8915 109.8506,91.9955 C117.2246,89.0985 144.8776,36.6905 140.9276,31.4235 C136.9766,26.1565 57.4346,-1.4785 52.6986,0.4875" id="Fill-12" fill="#237978" mask="url(#upper-bodywith-laptop-mask-4)"/></g><path d="M650.6088,23.2834 C650.6088,23.2834 698.2988,57.1534 693.5648,61.0734 C688.8308,64.9934 575.8238,99.4234 569.5908,94.5314 C563.3598,89.6394 551.9168,31.4994 557.2118,27.5884 C562.5088,23.6774 646.6358,20.0404 650.6088,23.2834" id="Fill-15" fill="#237978"/><path d="M123.259851,445.031349 C166.893554,466.002349 153.233851,474.731349 174.524851,487.829349 C195.815851,500.928349 228.449851,535.078349 239.694851,527.258349 C250.938851,519.438349 247.765851,512.512349 236.068851,502.885349 C224.372851,493.257349 188.169851,461.709349 192.145851,456.921349 C196.122851,452.133349 257.341851,520.465349 275.349851,508.401349 C293.357851,496.336349 254.631851,465.557349 235.864851,452.620349 C217.098851,439.684349 206.592851,428.138349 212.609851,426.196349 C218.626851,424.255349 289.502851,499.367349 303.228851,487.951349 C316.956851,476.535349 291.560851,450.435349 272.692851,437.256349 C253.825851,424.077349 224.797851,402.906349 224.797851,402.906349 C224.797851,402.906349 262.223851,418.298349 291.053851,445.811349 C319.883851,473.323349 326.829851,471.564349 330.441851,465.221349 C334.053851,458.878349 304.306851,424.060349 304.306851,424.060349 C304.306851,424.060349 305.316851,383.621349 266.957851,370.249349 C228.598851,356.878349 199.545851,336.218349 159.169851,339.440349 C118.793851,342.660349 106.355352,366.565153 106.355352,366.565153 C106.355352,366.565153 79.6261472,424.060349 123.259851,445.031349 Z" id="Fill-8" fill="#C26E5E" transform="translate(214.499157, 433.756203) rotate(30.000000) translate(-214.499157, -433.756203)" blush:skin="500"/><path d="M662.9867,209.88 L572.1647,209.88 C568.4677,209.88 565.4707,206.884 565.4707,203.188 L565.4707,195.319 C565.4707,191.624 568.4677,188.627 572.1647,188.627 L662.9867,188.627 C666.6827,188.627 669.6787,191.624 669.6787,195.319 L669.6787,203.188 C669.6787,206.884 666.6827,209.88 662.9867,209.88" id="Fill-17" fill="#237978"/></g><g id="Group-24" transform="translate(397.000000, 175.000000)"><path d="M185.2874,372.4279 L2.5724,321.7809 C2.5724,321.7809 -8.7866,309.7899 24.6594,306.6349 C58.1044,303.4799 407.5584,294.1429 407.5584,294.1429 L185.2874,372.4279 Z" id="Fill-20" fill="#204EB2"/><path d="M703.3129,371.8791 L190.8269,371.8791 C181.3339,371.8791 173.6369,364.1841 173.6369,354.6901 L220.1609,17.2031 C220.1609,7.7101 227.8559,0.0141 237.3489,0.0141 L749.8349,0.0141 C759.3289,0.0141 767.0249,7.7101 767.0249,17.2031 L720.5009,354.6901 C720.5009,364.1841 712.8059,371.8791 703.3129,371.8791" id="Fill-22" fill="#3267C8"/></g><g id="Group-2" transform="translate(893.239277, 513.555823) scale(-1, 1) rotate(-72.000000) translate(-893.239277, -513.555823) translate(800.239277, 441.555823)"><path d="M34.8019558,0.721228206 C34.8019558,0.721228206 30.1385768,5.272 25.5025768,10.938 C20.8665768,16.604 24.9875768,17.635 14.6855768,28.452 C4.38357684,39.27 -14.1604232,66.57 18.2905768,108.294 C50.7435768,150.018 61.5605768,146.411 74.9535768,139.2 C88.3455768,131.988 89.8915768,126.838 115.131577,124.262 C140.371577,121.687 164.581577,96.961 164.066577,90.78 L163.551577,84.599 C163.551577,84.599 186.730577,75.842 185.186577,66.055 C183.640577,56.268 176.944577,57.298 176.944577,57.298 C176.944577,57.298 181.580577,52.662 177.974577,44.42 C174.368577,36.179 157.370577,37.724 137.795577,40.3 C118.222577,42.875 67.7415768,53.177 64.6505768,51.117 C61.5605768,49.057 62.5905768,45.966 74.4375768,44.42 C86.2855768,42.875 134.190577,42.36 134.190577,28.967 C134.190577,15.574 119.767577,12.999 91.9515768,13.514 C64.1355768,14.029 58.9845768,12.483 52.2885768,15.06 L39.9277765,16.4968824 C36.5105627,5.9797796 34.8019558,0.721228206 34.8019558,0.721228206 Z" id="Fill-12" fill="#C26E5E" blush:skin="500"/><path d="M177.350177,57.2402 C177.350177,57.2402 178.830177,56.1722 167.807177,60.3812 C163.793177,61.9132 158.133177,63.5122 150.159177,65.0242 C120.282177,70.6902 73.4081768,80.9932 58.9851768,83.0532 C44.5611768,85.1142 56.4091768,88.2042 89.3761768,81.5082 C122.343177,74.8112 161.588177,65.8282 163.350177,65.2402 C166.350177,64.2402 175.350177,61.2402 177.350177,57.2402" id="Fill-14" fill="#995B5D"/><path d="M116.349877,99.2405 C103.608877,102.4255 82.3498768,107.2405 80.1038768,107.7785 C76.0968768,108.7395 68.2558768,110.3545 68.2558768,110.3545 C68.2558768,110.3545 68.3498768,113.2405 92.3498768,108.2405 C98.3048768,107.0005 109.349877,105.2405 116.349877,103.2405 C122.788877,101.4005 146.037877,95.4165 149.128877,92.8405 C152.218877,90.2645 152.733877,87.6895 152.733877,87.6895 C152.733877,87.6895 128.349877,96.2405 116.349877,99.2405 Z" id="Fill-16" fill="#995B5D"/></g></g></g></g><g id="Expression" transform="translate(1055.000000, 530.000000) scale(1 1)" blush:width="202" blush:height="224" blush:component="Expression"><g id="Expression/Happy" stroke="none" stroke-width="1" fill="none" fill-rule="evenodd"><g id="Group-124" transform="translate(25.000000, 52.000000)" fill-rule="nonzero"><path d="M98.9388073,0.515726772 L102.747593,1.73767323 L102.375135,2.93095324 C102.075892,3.9043293 101.742122,5.01790967 101.382468,6.25291663 C100.354215,9.78380887 99.3257634,13.5761133 98.3662837,17.478955 C97.2996742,21.8175645 96.3854385,26.0250163 95.6702376,29.9976992 L95.4631649,31.1740325 C93.7257688,41.2776329 93.4803733,48.9926374 95.0328764,53.1417647 L95.1244408,53.3771728 C104.002358,75.340079 91.9464166,86.4779502 66.6424816,78.6786942 L65.8716485,78.4365483 L67.0907515,74.6268517 C89.8846425,81.9208968 99.0260452,73.7026714 91.4159925,54.8763096 C89.3210345,49.6942966 89.6433125,40.8993486 91.7335247,29.288974 C92.4647551,25.2272527 93.3964651,20.9393815 94.4819426,16.5240234 C95.3476055,13.0027971 96.2678852,9.57278889 97.1943734,6.33814281 L97.5420029,5.13451153 C97.7507758,4.41761123 97.9510908,3.74056192 98.1413397,3.10683734 L98.6297394,1.50244969 L98.9388073,0.515726772 Z" id="Stroke-114" fill="#000"/><path d="M0.1850015,153.534088 L2.1419985,150.045512 L2.85620174,150.434727 L3.51128674,150.782909 C4.50308988,151.305335 5.6321651,151.880908 6.88714027,152.498006 L7.43266178,152.764985 C11.6537624,154.821142 16.3218862,156.878362 21.3004212,158.797989 C32.7483158,163.212076 44.0600582,166.224884 54.584272,167.202241 C59.3535856,167.645156 63.8735301,167.656119 68.1063644,167.201856 L68.9490919,167.10479 L69.4379081,171.07481 C64.6629697,171.662733 59.5745075,171.682884 54.2143935,171.185103 C43.2765951,170.169337 31.6251616,167.066055 19.8613669,162.530163 C14.7706849,160.567294 9.99959664,158.464698 5.68097489,156.361037 L4.04785364,155.55429 C3.35348222,155.206284 2.70158001,154.872883 2.09423579,154.556252 L0.962732129,153.958187 L0.1850015,153.534088 Z" id="Stroke-122" fill="#C86A5D"/></g><g id="Group-16" transform="translate(27.000000, 30.000000)" fill="#000"><path d="M70.0371,131.9951 C51.1661,131.9951 36.9381,123.3511 36.2701,122.9381 C34.8611,122.0681 34.4251,120.2191 35.2961,118.8091 C36.1651,117.4011 38.0141,116.9631 39.4241,117.8341 C39.7061,118.0061 56.4191,128.0481 76.5681,125.6031 C78.2011,125.4051 79.7071,126.5751 79.9081,128.2201 C80.1081,129.8641 78.9361,131.3601 77.2911,131.5591 C74.8141,131.8611 72.3881,131.9951 70.0371,131.9951" id="Fill-3" transform="translate(57.388937, 124.690582) rotate(15.000000) translate(-57.388937, -124.690582)"/><path d="M78.8252,103.1664 C74.7822,103.1664 69.7382,102.3754 63.4432,100.3614 L64.6612,96.5514 C76.3852,100.3024 85.0452,99.9964 89.0462,95.6874 C92.4492,92.0204 92.4282,85.3134 88.9872,76.8014 C86.6522,71.0264 87.2292,60.0734 90.7022,44.2454 C93.2432,32.6624 96.4772,22.5414 96.5102,22.4404 L100.3182,23.6624 C96.8112,34.5954 88.6062,65.1874 92.6952,75.3024 C97.8932,88.1604 95.1742,94.9644 91.9772,98.4084 C89.6972,100.8664 85.7182,103.1664 78.8252,103.1664" id="Fill-5"/><g id="Group-9" transform="translate(0.000000, 0.956000)"><path d="M62.1387,19.4316 C61.5377,19.4316 60.9257,19.3316 60.3267,19.1226 C54.4907,17.0866 37.6337,11.6746 29.8217,11.0966 C22.4657,10.5516 11.2427,14.1856 7.5387,15.6326 C4.7097,16.7366 1.5207,15.3416 0.4147,12.5146 C-0.6923,9.6866 0.7007,6.4986 3.5277,5.3896 C4.1637,5.1406 19.2597,-0.7164 30.6337,0.1266 C41.4887,0.9306 63.0387,8.4186 63.9507,8.7376 C66.8187,9.7386 68.3317,12.8746 67.3317,15.7426 C66.5397,18.0106 64.4127,19.4316 62.1387,19.4316" id="Fill-7"/></g><path d="M154.6772,39.1645 C153.5752,39.1645 152.4632,38.8265 151.5062,38.1245 C148.4472,35.8845 139.0022,29.8175 132.1372,28.6695 C124.8122,27.4455 107.9602,28.8295 102.0842,29.4645 C99.1372,29.7795 96.4882,27.6525 96.1692,24.7055 C95.8492,21.7575 97.9802,19.1085 100.9272,18.7895 C101.8492,18.6895 123.6282,16.3615 133.9072,18.0795 C144.7152,19.8855 157.3282,29.0775 157.8602,29.4685 C160.2492,31.2235 160.7642,34.5835 159.0092,36.9735 C157.9572,38.4055 156.3282,39.1645 154.6772,39.1645" id="Fill-10"/><path d="M51.6362,49.1289 C50.9112,49.1289 50.1852,48.8679 49.6092,48.3389 C49.5712,48.3049 44.6242,43.9129 37.4832,44.1789 C30.0942,44.4519 25.1892,48.0669 25.1402,48.1029 C23.8182,49.0929 21.9392,48.8329 20.9442,47.5169 C19.9472,46.1999 20.1962,44.3309 21.5082,43.3279 C21.7642,43.1319 27.8862,38.5299 37.2612,38.1829 C46.9102,37.8359 53.3942,43.6699 53.6652,43.9189 C54.8862,45.0389 54.9682,46.9369 53.8472,48.1569 C53.2562,48.8019 52.4472,49.1289 51.6362,49.1289" id="Fill-12"/><path d="M135.7539,58.2724 C135.0289,58.2724 134.3029,58.0114 133.7269,57.4824 C133.6889,57.4484 128.7419,53.0504 121.5999,53.3224 C114.2309,53.5944 109.3169,57.2014 109.2699,57.2374 C107.9529,58.2444 106.0699,57.9924 105.0639,56.6764 C104.0579,55.3604 104.3089,53.4774 105.6249,52.4714 C105.8809,52.2754 112.0039,47.6724 121.3789,47.3264 C131.0239,46.9814 137.5119,52.8134 137.7829,53.0624 C139.0039,54.1824 139.0859,56.0804 137.9649,57.3004 C137.3739,57.9454 136.5649,58.2724 135.7539,58.2724" id="Fill-14"/></g></g></g><g id="Hairstyle" transform="translate(564.000000, 203.000000) scale(1 1)" blush:width="826" blush:height="747" blush:component="Hairstyle"><defs><polygon id="hairstylecurly-bun-path-1" points="0.328028164 0.405 215.919 0.405 215.919 152.988863 0.328028164 152.988863"/><polygon id="hairstylecurly-bun-path-3" points="0 0.70825307 250.5147 0.70825307 250.5147 222 0 222"/></defs><g id="Hairstyle/Curly Bun" stroke="none" stroke-width="1" fill="none" fill-rule="evenodd"><g id="Group-11" transform="translate(434.000000, 48.000000)"><g id="Group-3" transform="translate(49.000000, 0.595000)"><mask id="hairstylecurly-bun-mask-2" fill="#fff"><use xlink:href="#hairstylecurly-bun-path-1"/></mask><g id="Clip-2"/><path d="M177.9641,151.0493 C177.9641,151.0493 173.9001,141.6203 196.0491,140.5903 C218.1991,139.5603 226.9561,94.2313 195.0191,74.1413 C163.0821,54.0523 197.5951,32.9333 148.6591,7.6933 C99.7241,-17.5477 75.5141,30.8723 75.5141,30.8723 C75.5141,30.8723 24.0041,10.7833 5.9751,51.9923 C-12.0539,93.2003 18.8521,109.6843 18.8521,109.6843 C18.8521,109.6843 -1.7519,123.5923 14.7321,140.5903 C31.2151,157.5893 75.6971,138.6983 83.0751,147.8863 C90.4521,157.0743 177.9641,151.0493 177.9641,151.0493" id="Fill-1" fill="#752B00" mask="url(#hairstylecurly-bun-mask-2)"/></g><path d="M78.8482,161.0855 C78.8482,161.0855 94.4382,132.3665 131.5252,129.6835 C168.6132,127.0005 185.2512,140.1725 189.5522,161.0855 C193.8532,181.9985 78.8482,161.0855 78.8482,161.0855" id="Fill-4" fill="#FFF"/><g id="Group-8" transform="translate(0.000000, 148.595000)"><mask id="hairstylecurly-bun-mask-4" fill="#fff"><use xlink:href="#hairstylecurly-bun-path-3"/></mask><g id="Clip-7"/><path d="M22.3227,199.6632 C21.2927,195.1992 24.0400333,189.876533 30.5647,183.6952 C40.3517,174.4232 36.7457,131.6692 59.9257,123.9422 C83.1057,116.2162 121.7387,76.5532 139.7667,76.5532 C157.7957,76.5532 188.7027,93.0362 201.0647,92.0062 C213.4277,90.9762 229.9107,115.7012 230.9407,128.5782 C231.9707,141.4562 248.8557,164.4952 238.3527,222.0002 C238.3527,222.0002 250.5147,202.7542 250.5147,180.0892 C250.5147,157.4242 247.4247,152.2732 248.9697,119.8222 C250.5147,87.3702 246.9097,53.8882 223.2147,38.4352 C199.5197,22.9812 184.5817,-5.3488 148.0087,1.8622 C111.4367,9.0742 83.1057,0.3172 61.4707,23.4972 C45.5577,40.5472 21.8077,52.3432 16.6567,87.3702 C11.8577,120.0022 -14.6383,135.0912 11.0537,170.2102 C11.0537,170.2102 22.3227,188.3312 22.3227,199.6632 Z" id="Fill-6" fill="#752B00" mask="url(#hairstylecurly-bun-mask-4)"/></g><path d="M81.5017,158.7446 C81.5017,158.7446 88.3227,130.4856 133.3227,127.4856 C178.3227,124.4856 187.0857,143.8696 189.2047,159.6776 C189.2047,159.6776 170.7157,147.3106 147.0197,152.3986 C123.3227,157.4856 96.6807,154.0036 81.5017,158.7446" id="Fill-9" fill="#56ACF6"/></g></g></g><g id="Accesories" transform="translate(1008.000000, 563.000000) scale(1 1)" fill="#000" blush:width="234" blush:height="78" blush:component="Accesories"><g id="Accesories/None" stroke="none" stroke-width="1" fill="none" fill-rule="evenodd" fill-opacity="0"/></g><g id="Facial Hair" transform="translate(1018.000000, 564.000000) scale(1 1)" fill="#000" blush:width="212" blush:height="211" blush:component="Facial Hair"><g id="Facial Hair/None" stroke="none" stroke-width="1" fill="none" fill-rule="evenodd" fill-opacity="0"/></g></g></g></g></svg>